ISO-10303-21;
HEADER;
FILE_DESCRIPTION (( 'STEP AP214' ),
    '1' );
FILE_NAME ('Tensioner RH60.STEP',
    '2025-04-24T01:04:06',
    ( '' ),
    ( '' ),
    'SwSTEP 2.0',
    'SolidWorks 2023',
    '' );
FILE_SCHEMA (( 'AUTOMOTIVE_DESIGN' ));
ENDSEC;

DATA;
#1 = FACE_BOUND ( 'NONE', #94, .T. ) ;
#2 = LINE ( 'NONE', #58, #209 ) ;
#3 = AXIS2_PLACEMENT_3D ( 'NONE', #218, #192, #138 ) ;
#4 =( NAMED_UNIT ( * ) SI_UNIT ( $, .STERADIAN. ) SOLID_ANGLE_UNIT ( ) );
#5 = CARTESIAN_POINT ( 'NONE',  ( 2.500000000000000444, -9.000000000000000000, 2.799999999999999822 ) ) ;
#6 = CARTESIAN_POINT ( 'NONE',  ( 2.500000000000000444, 9.000000000000000000, 0.000000000000000000 ) ) ;
#7 = CARTESIAN_POINT ( 'NONE',  ( -2.499999999999999556, 9.000000000000000000, 2.799999999999999822 ) ) ;
#8 = UNCERTAINTY_MEASURE_WITH_UNIT (LENGTH_MEASURE( 1.000000000000000082E-05 ), #82, 'distance_accuracy_value', 'NONE');
#9 = ORIENTED_EDGE ( 'NONE', *, *, #47, .F. ) ;
#10 = FACE_OUTER_BOUND ( 'NONE', #261, .T. ) ;
#11 = VECTOR ( 'NONE', #111, 1000.000000000000000 ) ;
#12 = DIRECTION ( 'NONE',  ( 1.000000000000000000, 0.000000000000000000, -0.000000000000000000 ) ) ;
#13 = ORIENTED_EDGE ( 'NONE', *, *, #264, .T. ) ;
#14 = ORIENTED_EDGE ( 'NONE', *, *, #26, .F. ) ;
#15 = PRODUCT ( 'Tensioner RH60', 'Tensioner RH60', '', ( #304 ) ) ;
#16 = CARTESIAN_POINT ( 'NONE',  ( 2.500000000000000444, -9.000000000000000000, 0.000000000000000000 ) ) ;
#17 = CARTESIAN_POINT ( 'NONE',  ( 8.673617379884035472E-16, -6.000000000000000888, 2.799999999999999822 ) ) ;
#18 = DIRECTION ( 'NONE',  ( -0.000000000000000000, -0.000000000000000000, -1.000000000000000000 ) ) ;
#19 = ORIENTED_EDGE ( 'NONE', *, *, #73, .F. ) ;
#20 = ORIENTED_EDGE ( 'NONE', *, *, #127, .T. ) ;
#21 = AXIS2_PLACEMENT_3D ( 'NONE', #17, #128, #275 ) ;
#22 = DIRECTION ( 'NONE',  ( 0.000000000000000000, 0.000000000000000000, 1.000000000000000000 ) ) ;
#23 = ADVANCED_FACE ( 'NONE', ( #300 ), #24, .F. ) ;
#24 = CYLINDRICAL_SURFACE ( 'NONE', #150, 1.250000000000000222 ) ;
#25 = CYLINDRICAL_SURFACE ( 'NONE', #251, 1.250000000000000222 ) ;
#26 = EDGE_CURVE ( 'NONE', #67, #223, #141, .T. ) ;
#27 = FILL_AREA_STYLE_COLOUR ( '', #35 ) ;
#28 = CARTESIAN_POINT ( 'NONE',  ( 0.000000000000000000, 4.999999999999997335, 2.799999999999999822 ) ) ;
#29 = DIRECTION ( 'NONE',  ( -0.000000000000000000, -0.000000000000000000, -1.000000000000000000 ) ) ;
#30 = CARTESIAN_POINT ( 'NONE',  ( 8.673617379884035472E-16, -6.000000000000000888, 2.799999999999999822 ) ) ;
#31 = CARTESIAN_POINT ( 'NONE',  ( -2.499999999999999556, -9.000000000000000000, 0.000000000000000000 ) ) ;
#32 = AXIS2_PLACEMENT_3D ( 'NONE', #66, #228, #156 ) ;
#33 = CIRCLE ( 'NONE', #189, 1.000000000000000000 ) ;
#34 = AXIS2_PLACEMENT_3D ( 'NONE', #108, #51, #216 ) ;
#35 = COLOUR_RGB ( '',0.7921568627450980005, 0.8196078431372548767, 0.9333333333333333481 ) ;
#36 = FACE_BOUND ( 'NONE', #148, .T. ) ;
#37 = ORIENTED_EDGE ( 'NONE', *, *, #113, .F. ) ;
#38 = ADVANCED_FACE ( 'NONE', ( #1, #105, #68 ), #282, .F. ) ;
#39 = CARTESIAN_POINT ( 'NONE',  ( -0.9999999999999991118, -6.000000000000000888, 2.799999999999999822 ) ) ;
#40 = ORIENTED_EDGE ( 'NONE', *, *, #227, .F. ) ;
#41 = ORIENTED_EDGE ( 'NONE', *, *, #47, .T. ) ;
#42 = EDGE_CURVE ( 'NONE', #206, #296, #181, .T. ) ;
#43 = CARTESIAN_POINT ( 'NONE',  ( -1.250000000000000222, 4.999999999999997335, 0.000000000000000000 ) ) ;
#44 = PLANE ( 'NONE',  #78 ) ;
#45 = VERTEX_POINT ( 'NONE', #254 ) ;
#46 = ORIENTED_EDGE ( 'NONE', *, *, #113, .T. ) ;
#47 = EDGE_CURVE ( 'NONE', #153, #88, #182, .T. ) ;
#48 = ORIENTED_EDGE ( 'NONE', *, *, #42, .F. ) ;
#49 = CARTESIAN_POINT ( 'NONE',  ( -2.499999999999999556, 9.000000000000000000, 2.799999999999999822 ) ) ;
#50 = ORIENTED_EDGE ( 'NONE', *, *, #238, .T. ) ;
#51 = DIRECTION ( 'NONE',  ( 0.000000000000000000, 0.000000000000000000, 1.000000000000000000 ) ) ;
#52 = VECTOR ( 'NONE', #120, 1000.000000000000000 ) ;
#53 = DIRECTION ( 'NONE',  ( -0.000000000000000000, -0.000000000000000000, 1.000000000000000000 ) ) ;
#54 = CARTESIAN_POINT ( 'NONE',  ( 1.250000000000000222, 4.999999999999997335, 0.000000000000000000 ) ) ;
#55 =( NAMED_UNIT ( * ) PLANE_ANGLE_UNIT ( ) SI_UNIT ( $, .RADIAN. ) );
#56 = CARTESIAN_POINT ( 'NONE',  ( 2.500000000000000444, -9.000000000000000000, 2.799999999999999822 ) ) ;
#57 = CARTESIAN_POINT ( 'NONE',  ( -0.9999999999999991118, -6.000000000000000888, 2.799999999999999822 ) ) ;
#58 = CARTESIAN_POINT ( 'NONE',  ( 2.500000000000000444, -9.000000000000000000, 2.799999999999999822 ) ) ;
#59 = PRESENTATION_STYLE_ASSIGNMENT (( #263 ) ) ;
#60 = PRODUCT_DEFINITION_FORMATION_WITH_SPECIFIED_SOURCE ( 'ANY', '', #15, .NOT_KNOWN. ) ;
#61 = AXIS2_PLACEMENT_3D ( 'NONE', #110, #219, #163 ) ;
#62 = ORIENTED_EDGE ( 'NONE', *, *, #119, .F. ) ;
#63 = ORIENTED_EDGE ( 'NONE', *, *, #288, .T. ) ;
#64 = CARTESIAN_POINT ( 'NONE',  ( 0.000000000000000000, 0.000000000000000000, 2.799999999999999822 ) ) ;
#65 = ORIENTED_EDGE ( 'NONE', *, *, #222, .T. ) ;
#66 = CARTESIAN_POINT ( 'NONE',  ( -2.499999999999999556, -9.000000000000000000, 2.799999999999999822 ) ) ;
#67 = VERTEX_POINT ( 'NONE', #54 ) ;
#68 = FACE_BOUND ( 'NONE', #332, .T. ) ;
#69 = AXIS2_PLACEMENT_3D ( 'NONE', #28, #308, #247 ) ;
#70 = ORIENTED_EDGE ( 'NONE', *, *, #167, .T. ) ;
#71 = MECHANICAL_DESIGN_GEOMETRIC_PRESENTATION_REPRESENTATION (  '', ( #95 ), #84 ) ;
#72 = ORIENTED_EDGE ( 'NONE', *, *, #201, .F. ) ;
#73 = EDGE_CURVE ( 'NONE', #296, #90, #2, .T. ) ;
#74 = LINE ( 'NONE', #49, #299 ) ;
#75 = EDGE_CURVE ( 'NONE', #90, #330, #81, .T. ) ;
#76 = VERTEX_POINT ( 'NONE', #106 ) ;
#77 = DIRECTION ( 'NONE',  ( 1.000000000000000000, 0.000000000000000000, -0.000000000000000000 ) ) ;
#78 = AXIS2_PLACEMENT_3D ( 'NONE', #5, #246, #143 ) ;
#79 = ADVANCED_BREP_SHAPE_REPRESENTATION ( 'Tensioner RH60', ( #137, #34 ), #284 ) ;
#80 = SURFACE_SIDE_STYLE ('',( #289 ) ) ;
#81 = LINE ( 'NONE', #306, #283 ) ;
#82 =( LENGTH_UNIT ( ) NAMED_UNIT ( * ) SI_UNIT ( .MILLI., .METRE. ) );
#83 = DIRECTION ( 'NONE',  ( 0.000000000000000000, 0.000000000000000000, 1.000000000000000000 ) ) ;
#84 =( GEOMETRIC_REPRESENTATION_CONTEXT ( 3 ) GLOBAL_UNCERTAINTY_ASSIGNED_CONTEXT ( ( #224 ) ) GLOBAL_UNIT_ASSIGNED_CONTEXT ( ( #217, #309, #4 ) ) REPRESENTATION_CONTEXT ( 'NONE', 'WORKASPACE' ) );
#85 = DIRECTION ( 'NONE',  ( 1.000000000000000000, 0.000000000000000000, 0.000000000000000000 ) ) ;
#86 = DIRECTION ( 'NONE',  ( -1.000000000000000000, 0.000000000000000000, 0.000000000000000000 ) ) ;
#87 = AXIS2_PLACEMENT_3D ( 'NONE', #64, #320, #12 ) ;
#88 = VERTEX_POINT ( 'NONE', #57 ) ;
#89 = PLANE ( 'NONE',  #190 ) ;
#90 = VERTEX_POINT ( 'NONE', #248 ) ;
#91 = FACE_OUTER_BOUND ( 'NONE', #322, .T. ) ;
#92 = ORIENTED_EDGE ( 'NONE', *, *, #281, .T. ) ;
#93 = DIRECTION ( 'NONE',  ( -0.000000000000000000, -0.000000000000000000, 1.000000000000000000 ) ) ;
#94 = EDGE_LOOP ( 'NONE', ( #291, #70 ) ) ;
#95 = STYLED_ITEM ( 'NONE', ( #59 ), #137 ) ;
#96 = DIRECTION ( 'NONE',  ( 0.000000000000000000, -1.000000000000000000, 0.000000000000000000 ) ) ;
#97 = ORIENTED_EDGE ( 'NONE', *, *, #222, .F. ) ;
#98 = LINE ( 'NONE', #295, #274 ) ;
#99 = ORIENTED_EDGE ( 'NONE', *, *, #176, .T. ) ;
#100 = CARTESIAN_POINT ( 'NONE',  ( 1.000000000000000888, -6.000000000000000888, 2.799999999999999822 ) ) ;
#101 = VERTEX_POINT ( 'NONE', #265 ) ;
#102 = AXIS2_PLACEMENT_3D ( 'NONE', #115, #117, #166 ) ;
#103 = ORIENTED_EDGE ( 'NONE', *, *, #256, .F. ) ;
#104 = EDGE_CURVE ( 'NONE', #175, #151, #215, .T. ) ;
#105 = FACE_OUTER_BOUND ( 'NONE', #294, .T. ) ;
#106 = CARTESIAN_POINT ( 'NONE',  ( -0.9999999999999991118, -6.000000000000000888, 0.000000000000000000 ) ) ;
#107 = CIRCLE ( 'NONE', #3, 1.000000000000000000 ) ;
#108 = CARTESIAN_POINT ( 'NONE',  ( 0.000000000000000000, 0.000000000000000000, 0.000000000000000000 ) ) ;
#109 = CLOSED_SHELL ( 'NONE', ( #157, #171, #191, #38, #301, #193, #311, #205, #298, #23 ) ) ;
#110 = CARTESIAN_POINT ( 'NONE',  ( 0.000000000000000000, 4.999999999999997335, 0.000000000000000000 ) ) ;
#111 = DIRECTION ( 'NONE',  ( -1.000000000000000000, 0.000000000000000000, 0.000000000000000000 ) ) ;
#112 = CIRCLE ( 'NONE', #61, 1.250000000000000222 ) ;
#113 = EDGE_CURVE ( 'NONE', #76, #101, #33, .T. ) ;
#114 = ORIENTED_EDGE ( 'NONE', *, *, #104, .F. ) ;
#115 = CARTESIAN_POINT ( 'NONE',  ( 2.500000000000000444, -9.000000000000000000, 2.799999999999999822 ) ) ;
#116 = AXIS2_PLACEMENT_3D ( 'NONE', #305, #172, #77 ) ;
#117 = DIRECTION ( 'NONE',  ( 0.000000000000000000, 1.000000000000000000, -0.000000000000000000 ) ) ;
#118 = PRODUCT_DEFINITION_CONTEXT ( 'detailed design', #130, 'design' ) ;
#119 = EDGE_CURVE ( 'NONE', #206, #151, #162, .T. ) ;
#120 = DIRECTION ( 'NONE',  ( -0.000000000000000000, -1.000000000000000000, -0.000000000000000000 ) ) ;
#121 = FACE_OUTER_BOUND ( 'NONE', #303, .T. ) ;
#122 = VERTEX_POINT ( 'NONE', #7 ) ;
#123 = AXIS2_PLACEMENT_3D ( 'NONE', #331, #211, #177 ) ;
#124 = VECTOR ( 'NONE', #268, 1000.000000000000000 ) ;
#125 = DIRECTION ( 'NONE',  ( 0.000000000000000000, 0.000000000000000000, 1.000000000000000000 ) ) ;
#126 = LINE ( 'NONE', #208, #319 ) ;
#127 = EDGE_CURVE ( 'NONE', #330, #175, #214, .T. ) ;
#128 = DIRECTION ( 'NONE',  ( 0.000000000000000000, 0.000000000000000000, 1.000000000000000000 ) ) ;
#129 = CARTESIAN_POINT ( 'NONE',  ( 2.500000000000000444, -9.000000000000000000, 2.799999999999999822 ) ) ;
#130 = APPLICATION_CONTEXT ( 'automotive_design' ) ;
#131 = ORIENTED_EDGE ( 'NONE', *, *, #238, .F. ) ;
#132 = DIRECTION ( 'NONE',  ( 1.000000000000000000, -0.000000000000000000, -0.000000000000000000 ) ) ;
#133 = ORIENTED_EDGE ( 'NONE', *, *, #288, .F. ) ;
#134 = APPLICATION_PROTOCOL_DEFINITION ( 'draft international standard', 'automotive_design', 1998, #244 ) ;
#135 = EDGE_LOOP ( 'NONE', ( #99, #13, #37, #72 ) ) ;
#136 = SHAPE_DEFINITION_REPRESENTATION ( #233, #79 ) ;
#137 = MANIFOLD_SOLID_BREP ( 'Cut-Extrude1', #109 ) ;
#138 = DIRECTION ( 'NONE',  ( 1.000000000000000000, 0.000000000000000000, 0.000000000000000000 ) ) ;
#139 = CARTESIAN_POINT ( 'NONE',  ( 0.000000000000000000, 4.999999999999997335, 0.000000000000000000 ) ) ;
#140 = VECTOR ( 'NONE', #260, 1000.000000000000000 ) ;
#141 = CIRCLE ( 'NONE', #312, 1.250000000000000222 ) ;
#142 = CARTESIAN_POINT ( 'NONE',  ( -2.499999999999999556, -9.000000000000000000, 2.799999999999999822 ) ) ;
#143 = DIRECTION ( 'NONE',  ( 0.000000000000000000, 0.000000000000000000, 1.000000000000000000 ) ) ;
#144 = DIRECTION ( 'NONE',  ( -0.000000000000000000, -0.000000000000000000, -1.000000000000000000 ) ) ;
#145 = FACE_OUTER_BOUND ( 'NONE', #135, .T. ) ;
#146 = ORIENTED_EDGE ( 'NONE', *, *, #167, .F. ) ;
#147 = PLANE ( 'NONE',  #87 ) ;
#148 = EDGE_LOOP ( 'NONE', ( #226, #9 ) ) ;
#149 = PLANE ( 'NONE',  #32 ) ;
#150 = AXIS2_PLACEMENT_3D ( 'NONE', #178, #53, #277 ) ;
#151 = VERTEX_POINT ( 'NONE', #194 ) ;
#152 = DIRECTION ( 'NONE',  ( -1.000000000000000000, 0.000000000000000000, 0.000000000000000000 ) ) ;
#153 = VERTEX_POINT ( 'NONE', #160 ) ;
#154 = DIRECTION ( 'NONE',  ( 0.000000000000000000, -0.000000000000000000, -1.000000000000000000 ) ) ;
#155 = ORIENTED_EDGE ( 'NONE', *, *, #281, .F. ) ;
#156 = DIRECTION ( 'NONE',  ( 0.000000000000000000, 0.000000000000000000, -1.000000000000000000 ) ) ;
#157 = ADVANCED_FACE ( 'NONE', ( #307 ), #25, .F. ) ;
#158 = ORIENTED_EDGE ( 'NONE', *, *, #201, .T. ) ;
#159 = ORIENTED_EDGE ( 'NONE', *, *, #310, .T. ) ;
#160 = CARTESIAN_POINT ( 'NONE',  ( 1.000000000000000888, -6.000000000000000888, 2.799999999999999822 ) ) ;
#161 = EDGE_CURVE ( 'NONE', #296, #221, #187, .T. ) ;
#162 = LINE ( 'NONE', #142, #124 ) ;
#163 = DIRECTION ( 'NONE',  ( 1.000000000000000000, 0.000000000000000000, 0.000000000000000000 ) ) ;
#164 = CARTESIAN_POINT ( 'NONE',  ( 8.673617379884035472E-16, -6.000000000000000888, 0.000000000000000000 ) ) ;
#165 = AXIS2_PLACEMENT_3D ( 'NONE', #293, #253, #204 ) ;
#166 = DIRECTION ( 'NONE',  ( 0.000000000000000000, 0.000000000000000000, 1.000000000000000000 ) ) ;
#167 = EDGE_CURVE ( 'NONE', #223, #67, #112, .T. ) ;
#168 = VECTOR ( 'NONE', #29, 1000.000000000000000 ) ;
#169 = ORIENTED_EDGE ( 'NONE', *, *, #42, .T. ) ;
#170 = LINE ( 'NONE', #231, #317 ) ;
#171 = ADVANCED_FACE ( 'NONE', ( #145 ), #267, .F. ) ;
#172 = DIRECTION ( 'NONE',  ( 0.000000000000000000, -0.000000000000000000, 1.000000000000000000 ) ) ;
#173 = DIRECTION ( 'NONE',  ( 0.000000000000000000, 1.000000000000000000, 0.000000000000000000 ) ) ;
#174 = CIRCLE ( 'NONE', #225, 1.000000000000000000 ) ;
#175 = VERTEX_POINT ( 'NONE', #313 ) ;
#176 = EDGE_CURVE ( 'NONE', #88, #153, #107, .T. ) ;
#177 = DIRECTION ( 'NONE',  ( -1.000000000000000000, 0.000000000000000000, 0.000000000000000000 ) ) ;
#178 = CARTESIAN_POINT ( 'NONE',  ( 0.000000000000000000, 4.999999999999997335, 0.000000000000000000 ) ) ;
#179 = CARTESIAN_POINT ( 'NONE',  ( -1.250000000000000222, 4.999999999999997335, 0.000000000000000000 ) ) ;
#180 = VERTEX_POINT ( 'NONE', #324 ) ;
#181 = LINE ( 'NONE', #230, #280 ) ;
#182 = CIRCLE ( 'NONE', #21, 1.000000000000000000 ) ;
#183 = APPLICATION_PROTOCOL_DEFINITION ( 'draft international standard', 'automotive_design', 1998, #130 ) ;
#184 = DIRECTION ( 'NONE',  ( 1.000000000000000000, 0.000000000000000000, 0.000000000000000000 ) ) ;
#185 = PRODUCT_RELATED_PRODUCT_CATEGORY ( 'part', '', ( #15 ) ) ;
#186 = DIRECTION ( 'NONE',  ( -0.000000000000000000, -0.000000000000000000, 1.000000000000000000 ) ) ;
#187 = LINE ( 'NONE', #56, #168 ) ;
#188 = VECTOR ( 'NONE', #132, 1000.000000000000000 ) ;
#189 = AXIS2_PLACEMENT_3D ( 'NONE', #164, #83, #287 ) ;
#190 = AXIS2_PLACEMENT_3D ( 'NONE', #327, #96, #154 ) ;
#191 = ADVANCED_FACE ( 'NONE', ( #198, #91, #36 ), #147, .T. ) ;
#192 = DIRECTION ( 'NONE',  ( 0.000000000000000000, 0.000000000000000000, 1.000000000000000000 ) ) ;
#193 = ADVANCED_FACE ( 'NONE', ( #220 ), #315, .F. ) ;
#194 = CARTESIAN_POINT ( 'NONE',  ( -2.499999999999999556, -9.000000000000000000, 0.000000000000000000 ) ) ;
#195 = LINE ( 'NONE', #290, #52 ) ;
#196 = PRESENTATION_LAYER_ASSIGNMENT (  '', '', ( #95 ) ) ;
#197 = EDGE_CURVE ( 'NONE', #122, #206, #195, .T. ) ;
#198 = FACE_BOUND ( 'NONE', #328, .T. ) ;
#199 = ORIENTED_EDGE ( 'NONE', *, *, #161, .T. ) ;
#200 = ORIENTED_EDGE ( 'NONE', *, *, #197, .T. ) ;
#201 = EDGE_CURVE ( 'NONE', #88, #76, #270, .T. ) ;
#202 = DIRECTION ( 'NONE',  ( -0.000000000000000000, -0.000000000000000000, 1.000000000000000000 ) ) ;
#203 = ORIENTED_EDGE ( 'NONE', *, *, #73, .T. ) ;
#204 = DIRECTION ( 'NONE',  ( 1.000000000000000000, 0.000000000000000000, 0.000000000000000000 ) ) ;
#205 = ADVANCED_FACE ( 'NONE', ( #10 ), #89, .F. ) ;
#206 = VERTEX_POINT ( 'NONE', #236 ) ;
#207 = CARTESIAN_POINT ( 'NONE',  ( 0.000000000000000000, 4.999999999999997335, 0.000000000000000000 ) ) ;
#208 = CARTESIAN_POINT ( 'NONE',  ( 2.500000000000000444, 9.000000000000000000, 2.799999999999999822 ) ) ;
#209 = VECTOR ( 'NONE', #266, 1000.000000000000000 ) ;
#210 = ORIENTED_EDGE ( 'NONE', *, *, #323, .T. ) ;
#211 = DIRECTION ( 'NONE',  ( -0.000000000000000000, -0.000000000000000000, -1.000000000000000000 ) ) ;
#212 = EDGE_LOOP ( 'NONE', ( #103, #14, #159, #252 ) ) ;
#213 = ORIENTED_EDGE ( 'NONE', *, *, #119, .T. ) ;
#214 = LINE ( 'NONE', #285, #11 ) ;
#215 = LINE ( 'NONE', #31, #333 ) ;
#216 = DIRECTION ( 'NONE',  ( 1.000000000000000000, 0.000000000000000000, 0.000000000000000000 ) ) ;
#217 =( LENGTH_UNIT ( ) NAMED_UNIT ( * ) SI_UNIT ( .MILLI., .METRE. ) );
#218 = CARTESIAN_POINT ( 'NONE',  ( 8.673617379884035472E-16, -6.000000000000000888, 2.799999999999999822 ) ) ;
#219 = DIRECTION ( 'NONE',  ( 0.000000000000000000, 0.000000000000000000, 1.000000000000000000 ) ) ;
#220 = FACE_OUTER_BOUND ( 'NONE', #321, .T. ) ;
#221 = VERTEX_POINT ( 'NONE', #258 ) ;
#222 = EDGE_CURVE ( 'NONE', #180, #45, #229, .T. ) ;
#223 = VERTEX_POINT ( 'NONE', #179 ) ;
#224 = UNCERTAINTY_MEASURE_WITH_UNIT (LENGTH_MEASURE( 1.000000000000000082E-05 ), #217, 'distance_accuracy_value', 'NONE');
#225 = AXIS2_PLACEMENT_3D ( 'NONE', #279, #22, #184 ) ;
#226 = ORIENTED_EDGE ( 'NONE', *, *, #176, .F. ) ;
#227 = EDGE_CURVE ( 'NONE', #221, #330, #98, .T. ) ;
#228 = DIRECTION ( 'NONE',  ( 1.000000000000000000, 0.000000000000000000, 0.000000000000000000 ) ) ;
#229 = CIRCLE ( 'NONE', #165, 1.250000000000000222 ) ;
#230 = CARTESIAN_POINT ( 'NONE',  ( 2.500000000000000444, -9.000000000000000000, 2.799999999999999822 ) ) ;
#231 = CARTESIAN_POINT ( 'NONE',  ( 1.250000000000000222, 4.999999999999997335, 0.000000000000000000 ) ) ;
#232 = ORIENTED_EDGE ( 'NONE', *, *, #75, .F. ) ;
#233 = PRODUCT_DEFINITION_SHAPE ( 'NONE', 'NONE',  #262 ) ;
#234 = FACE_OUTER_BOUND ( 'NONE', #257, .T. ) ;
#235 = EDGE_LOOP ( 'NONE', ( #146, #269, #65, #278 ) ) ;
#236 = CARTESIAN_POINT ( 'NONE',  ( -2.499999999999999556, -9.000000000000000000, 2.799999999999999822 ) ) ;
#237 = CIRCLE ( 'NONE', #69, 1.250000000000000222 ) ;
#238 = EDGE_CURVE ( 'NONE', #90, #122, #126, .T. ) ;
#239 = ORIENTED_EDGE ( 'NONE', *, *, #104, .T. ) ;
#240 =( NAMED_UNIT ( * ) SI_UNIT ( $, .STERADIAN. ) SOLID_ANGLE_UNIT ( ) );
#241 = DIRECTION ( 'NONE',  ( 1.000000000000000000, 0.000000000000000000, 0.000000000000000000 ) ) ;
#242 = DIRECTION ( 'NONE',  ( -0.000000000000000000, -0.000000000000000000, -1.000000000000000000 ) ) ;
#243 = VECTOR ( 'NONE', #93, 1000.000000000000000 ) ;
#244 = APPLICATION_CONTEXT ( 'automotive_design' ) ;
#245 = DIRECTION ( 'NONE',  ( -0.000000000000000000, -1.000000000000000000, -0.000000000000000000 ) ) ;
#246 = DIRECTION ( 'NONE',  ( -1.000000000000000000, 0.000000000000000000, 0.000000000000000000 ) ) ;
#247 = DIRECTION ( 'NONE',  ( 1.000000000000000000, 0.000000000000000000, 0.000000000000000000 ) ) ;
#248 = CARTESIAN_POINT ( 'NONE',  ( 2.500000000000000444, 9.000000000000000000, 2.799999999999999822 ) ) ;
#249 = ORIENTED_EDGE ( 'NONE', *, *, #127, .F. ) ;
#250 = DIRECTION ( 'NONE',  ( -0.000000000000000000, -0.000000000000000000, -1.000000000000000000 ) ) ;
#251 = AXIS2_PLACEMENT_3D ( 'NONE', #139, #186, #85 ) ;
#252 = ORIENTED_EDGE ( 'NONE', *, *, #329, .T. ) ;
#253 = DIRECTION ( 'NONE',  ( 0.000000000000000000, 0.000000000000000000, 1.000000000000000000 ) ) ;
#254 = CARTESIAN_POINT ( 'NONE',  ( 1.250000000000000222, 4.999999999999997335, 2.799999999999999822 ) ) ;
#255 = LINE ( 'NONE', #16, #188 ) ;
#256 = EDGE_CURVE ( 'NONE', #223, #180, #272, .T. ) ;
#257 = EDGE_LOOP ( 'NONE', ( #316, #41, #158, #297 ) ) ;
#258 = CARTESIAN_POINT ( 'NONE',  ( 2.500000000000000444, -9.000000000000000000, 0.000000000000000000 ) ) ;
#259 = ORIENTED_EDGE ( 'NONE', *, *, #75, .T. ) ;
#260 = DIRECTION ( 'NONE',  ( -0.000000000000000000, -0.000000000000000000, -1.000000000000000000 ) ) ;
#261 = EDGE_LOOP ( 'NONE', ( #20, #133, #131, #259 ) ) ;
#262 = PRODUCT_DEFINITION ( 'UNKNOWN', '', #60, #118 ) ;
#263 = SURFACE_STYLE_USAGE ( .BOTH. , #80 ) ;
#264 = EDGE_CURVE ( 'NONE', #153, #101, #302, .T. ) ;
#265 = CARTESIAN_POINT ( 'NONE',  ( 1.000000000000000888, -6.000000000000000888, 0.000000000000000000 ) ) ;
#266 = DIRECTION ( 'NONE',  ( 0.000000000000000000, 1.000000000000000000, 0.000000000000000000 ) ) ;
#267 = CYLINDRICAL_SURFACE ( 'NONE', #286, 1.000000000000000000 ) ;
#268 = DIRECTION ( 'NONE',  ( -0.000000000000000000, -0.000000000000000000, -1.000000000000000000 ) ) ;
#269 = ORIENTED_EDGE ( 'NONE', *, *, #256, .T. ) ;
#270 = LINE ( 'NONE', #39, #326 ) ;
#271 = ORIENTED_EDGE ( 'NONE', *, *, #329, .F. ) ;
#272 = LINE ( 'NONE', #43, #243 ) ;
#273 = DIRECTION ( 'NONE',  ( 1.000000000000000000, -0.000000000000000000, -0.000000000000000000 ) ) ;
#274 = VECTOR ( 'NONE', #173, 1000.000000000000000 ) ;
#275 = DIRECTION ( 'NONE',  ( 1.000000000000000000, 0.000000000000000000, 0.000000000000000000 ) ) ;
#276 = FACE_OUTER_BOUND ( 'NONE', #318, .T. ) ;
#277 = DIRECTION ( 'NONE',  ( 1.000000000000000000, 0.000000000000000000, 0.000000000000000000 ) ) ;
#278 = ORIENTED_EDGE ( 'NONE', *, *, #310, .F. ) ;
#279 = CARTESIAN_POINT ( 'NONE',  ( 8.673617379884035472E-16, -6.000000000000000888, 0.000000000000000000 ) ) ;
#280 = VECTOR ( 'NONE', #273, 1000.000000000000000 ) ;
#281 = EDGE_CURVE ( 'NONE', #151, #221, #255, .T. ) ;
#282 = PLANE ( 'NONE',  #116 ) ;
#283 = VECTOR ( 'NONE', #242, 1000.000000000000000 ) ;
#284 =( GEOMETRIC_REPRESENTATION_CONTEXT ( 3 ) GLOBAL_UNCERTAINTY_ASSIGNED_CONTEXT ( ( #8 ) ) GLOBAL_UNIT_ASSIGNED_CONTEXT ( ( #82, #55, #240 ) ) REPRESENTATION_CONTEXT ( 'NONE', 'WORKASPACE' ) );
#285 = CARTESIAN_POINT ( 'NONE',  ( 2.500000000000000444, 9.000000000000000000, 0.000000000000000000 ) ) ;
#286 = AXIS2_PLACEMENT_3D ( 'NONE', #30, #144, #86 ) ;
#287 = DIRECTION ( 'NONE',  ( 1.000000000000000000, 0.000000000000000000, 0.000000000000000000 ) ) ;
#288 = EDGE_CURVE ( 'NONE', #122, #175, #74, .T. ) ;
#289 = SURFACE_STYLE_FILL_AREA ( #314 ) ;
#290 = CARTESIAN_POINT ( 'NONE',  ( -2.499999999999999556, -9.000000000000000000, 2.799999999999999822 ) ) ;
#291 = ORIENTED_EDGE ( 'NONE', *, *, #26, .T. ) ;
#292 = ORIENTED_EDGE ( 'NONE', *, *, #227, .T. ) ;
#293 = CARTESIAN_POINT ( 'NONE',  ( 0.000000000000000000, 4.999999999999997335, 2.799999999999999822 ) ) ;
#294 = EDGE_LOOP ( 'NONE', ( #114, #249, #40, #155 ) ) ;
#295 = CARTESIAN_POINT ( 'NONE',  ( 2.500000000000000444, -9.000000000000000000, 0.000000000000000000 ) ) ;
#296 = VERTEX_POINT ( 'NONE', #129 ) ;
#297 = ORIENTED_EDGE ( 'NONE', *, *, #323, .F. ) ;
#298 = ADVANCED_FACE ( 'NONE', ( #234 ), #334, .F. ) ;
#299 = VECTOR ( 'NONE', #18, 1000.000000000000000 ) ;
#300 = FACE_OUTER_BOUND ( 'NONE', #212, .T. ) ;
#301 = ADVANCED_FACE ( 'NONE', ( #276 ), #149, .F. ) ;
#302 = LINE ( 'NONE', #100, #140 ) ;
#303 = EDGE_LOOP ( 'NONE', ( #292, #232, #19, #199 ) ) ;
#304 = PRODUCT_CONTEXT ( 'NONE', #244, 'mechanical' ) ;
#305 = CARTESIAN_POINT ( 'NONE',  ( 0.000000000000000000, 0.000000000000000000, 0.000000000000000000 ) ) ;
#306 = CARTESIAN_POINT ( 'NONE',  ( 2.500000000000000444, 9.000000000000000000, 2.799999999999999822 ) ) ;
#307 = FACE_OUTER_BOUND ( 'NONE', #235, .T. ) ;
#308 = DIRECTION ( 'NONE',  ( 0.000000000000000000, 0.000000000000000000, 1.000000000000000000 ) ) ;
#309 =( NAMED_UNIT ( * ) PLANE_ANGLE_UNIT ( ) SI_UNIT ( $, .RADIAN. ) );
#310 = EDGE_CURVE ( 'NONE', #67, #45, #170, .T. ) ;
#311 = ADVANCED_FACE ( 'NONE', ( #121 ), #44, .F. ) ;
#312 = AXIS2_PLACEMENT_3D ( 'NONE', #207, #125, #241 ) ;
#313 = CARTESIAN_POINT ( 'NONE',  ( -2.499999999999999556, 9.000000000000000000, 0.000000000000000000 ) ) ;
#314 = FILL_AREA_STYLE ('',( #27 ) ) ;
#315 = PLANE ( 'NONE',  #102 ) ;
#316 = ORIENTED_EDGE ( 'NONE', *, *, #264, .F. ) ;
#317 = VECTOR ( 'NONE', #202, 1000.000000000000000 ) ;
#318 = EDGE_LOOP ( 'NONE', ( #239, #62, #325, #63 ) ) ;
#319 = VECTOR ( 'NONE', #152, 1000.000000000000000 ) ;
#320 = DIRECTION ( 'NONE',  ( 0.000000000000000000, -0.000000000000000000, 1.000000000000000000 ) ) ;
#321 = EDGE_LOOP ( 'NONE', ( #92, #335, #48, #213 ) ) ;
#322 = EDGE_LOOP ( 'NONE', ( #200, #169, #203, #50 ) ) ;
#323 = EDGE_CURVE ( 'NONE', #101, #76, #174, .T. ) ;
#324 = CARTESIAN_POINT ( 'NONE',  ( -1.250000000000000222, 4.999999999999997335, 2.799999999999999822 ) ) ;
#325 = ORIENTED_EDGE ( 'NONE', *, *, #197, .F. ) ;
#326 = VECTOR ( 'NONE', #250, 1000.000000000000000 ) ;
#327 = CARTESIAN_POINT ( 'NONE',  ( 2.500000000000000444, 9.000000000000000000, 2.799999999999999822 ) ) ;
#328 = EDGE_LOOP ( 'NONE', ( #271, #97 ) ) ;
#329 = EDGE_CURVE ( 'NONE', #45, #180, #237, .T. ) ;
#330 = VERTEX_POINT ( 'NONE', #6 ) ;
#331 = CARTESIAN_POINT ( 'NONE',  ( 8.673617379884035472E-16, -6.000000000000000888, 2.799999999999999822 ) ) ;
#332 = EDGE_LOOP ( 'NONE', ( #46, #210 ) ) ;
#333 = VECTOR ( 'NONE', #245, 1000.000000000000000 ) ;
#334 = CYLINDRICAL_SURFACE ( 'NONE', #123, 1.000000000000000000 ) ;
#335 = ORIENTED_EDGE ( 'NONE', *, *, #161, .F. ) ;
ENDSEC;
END-ISO-10303-21;
