ISO-10303-21;
HEADER;
FILE_DESCRIPTION (( 'STEP AP214' ),
    '1' );
FILE_NAME ('Wrist Hinge 2 RH60.STEP',
    '2025-04-24T01:22:46',
    ( '' ),
    ( '' ),
    'SwSTEP 2.0',
    'SolidWorks 2023',
    '' );
FILE_SCHEMA (( 'AUTOMOTIVE_DESIGN' ));
ENDSEC;

DATA;
#1 = DIRECTION ( 'NONE',  ( -1.000000000000000000, 0.000000000000000000, 2.484124017598790126E-15 ) ) ;
#2 = LINE ( 'NONE', #175, #389 ) ;
#3 = EDGE_CURVE ( 'NONE', #117, #524, #515, .T. ) ;
#4 = ADVANCED_FACE ( 'NONE', ( #144 ), #333, .T. ) ;
#5 = B_SPLINE_CURVE_WITH_KNOTS ( 'NONE', 3,
 ( #226, #455, #217, #80, #257, #448, #128, #588, #44, #179, #401, #411, #313, #174, #363, #371, #495, #548, #132, #499, #88, #263, #50, #414, #375, #381, #141, #511, #273, #421, #182, #565, #6, #418, #61, #143, #468, #184, #329, #465, #379, #232, #187, #556, #471, #229, #419, #377, #96, #189, #13, #106, #192 ),
 .UNSPECIFIED., .F., .F.,
 ( 4, 2, 2, 2, 2, 2, 2, 1, 2, 2, 2, 2, 2, 2, 1, 2, 2, 2, 2, 1, 2, 2, 2, 2, 2, 2, 2, 4 ),
 ( 0.000000000000000000, 0.06250000000000877076, 0.09375000000001328104, 0.1093750000000155154, 0.1250000000000177358, 0.1875000000000214828, 0.2187500000000232037, 0.2343750000000258682, 0.2421875000000291156, 0.2500000000000323630, 0.3125000000000389688, 0.3750000000000455747, 0.4375000000000521805, 0.4687500000000554556, 0.4843750000000570655, 0.4921875000000579536, 0.5000000000000588418, 0.5625000000000455191, 0.5937500000000370814, 0.6093750000000328626, 0.6171875000000321965, 0.6250000000000315303, 0.6875000000000205391, 0.7187500000000149880, 0.7343750000000132117, 0.7500000000000114353, 0.8750000000000057732, 1.000000000000000000 ),
 .UNSPECIFIED. ) ;
#6 = CARTESIAN_POINT ( 'NONE',  ( -20.78673908672743309, 2.679285202621834117, 85.81303151901110482 ) ) ;
#7 = VECTOR ( 'NONE', #116, 1000.000000000000000 ) ;
#8 = DIRECTION ( 'NONE',  ( 1.675614206915964914E-15, -6.178827388002610438E-15, 1.000000000000000000 ) ) ;
#9 = SURFACE_STYLE_FILL_AREA ( #473 ) ;
#10 = ORIENTED_EDGE ( 'NONE', *, *, #17, .F. ) ;
#11 = CARTESIAN_POINT ( 'NONE',  ( -27.93015981042025686, -0.9999985876231372028, 68.61954089446327032 ) ) ;
#12 = ORIENTED_EDGE ( 'NONE', *, *, #415, .F. ) ;
#13 = CARTESIAN_POINT ( 'NONE',  ( -21.50132422698120394, -0.2249028297808815524, 87.46539818880259531 ) ) ;
#14 = PRODUCT_DEFINITION_FORMATION_WITH_SPECIFIED_SOURCE ( 'ANY', '', #265, .NOT_KNOWN. ) ;
#15 = CARTESIAN_POINT ( 'NONE',  ( 64.49662848148149408, 3.412376843071884824E-06, 71.44797367606352623 ) ) ;
#16 = ORIENTED_EDGE ( 'NONE', *, *, #533, .F. ) ;
#17 = EDGE_CURVE ( 'NONE', #135, #148, #274, .T. ) ;
#18 = CARTESIAN_POINT ( 'NONE',  ( -31.18016631042026177, 1.000005412376864689, 74.27640645766418004 ) ) ;
#19 = LINE ( 'NONE', #22, #332 ) ;
#20 = CARTESIAN_POINT ( 'NONE',  ( -24.93015381042025780, -0.9999985876231372028, 76.27641045766418415 ) ) ;
#21 = CARTESIAN_POINT ( 'NONE',  ( -21.04804826152117059, 1.871052551186479951, 69.10085704011392238 ) ) ;
#22 = CARTESIAN_POINT ( 'NONE',  ( -21.58500368810927128, -0.9999985876231372028, 66.40491515961349478 ) ) ;
#23 = LINE ( 'NONE', #342, #42 ) ;
#24 = ORIENTED_EDGE ( 'NONE', *, *, #17, .T. ) ;
#25 = CARTESIAN_POINT ( 'NONE',  ( -20.69025393282909420, 2.957691932782577915, 71.95276422482407952 ) ) ;
#26 = CLOSED_SHELL ( 'NONE', ( #330, #463, #383, #234, #569, #271, #183, #470, #422, #4, #458, #123, #211, #81 ) ) ;
#27 = VECTOR ( 'NONE', #108, 1000.000000000000000 ) ;
#28 = EDGE_CURVE ( 'NONE', #135, #231, #557, .T. ) ;
#29 = DIRECTION ( 'NONE',  ( -1.000000000000000000, 2.498001805406600244E-16, 2.484124017598790126E-15 ) ) ;
#30 = ORIENTED_EDGE ( 'NONE', *, *, #52, .T. ) ;
#31 = DIRECTION ( 'NONE',  ( 1.000000000000000000, -2.498001805406600244E-16, -2.484124017598790126E-15 ) ) ;
#32 = CARTESIAN_POINT ( 'NONE',  ( -20.76828181336950507, 2.732668680352895230, 70.20894542000769434 ) ) ;
#33 = CARTESIAN_POINT ( 'NONE',  ( -27.93015981042023199, -0.9999985876231372028, 87.27643245766418545 ) ) ;
#34 = CARTESIAN_POINT ( 'NONE',  ( -24.93015381042022938, 3.412376868247059269E-06, 84.44799967606370217 ) ) ;
#35 = DIRECTION ( 'NONE',  ( -2.484124017598790126E-15, 0.000000000000000000, -1.000000000000000000 ) ) ;
#36 = PRODUCT_DEFINITION ( 'UNKNOWN', '', #14, #345 ) ;
#37 = CARTESIAN_POINT ( 'NONE',  ( -20.78983812620225535, 2.669751922814554757, 70.07599583666144838 ) ) ;
#38 =( LENGTH_UNIT ( ) NAMED_UNIT ( * ) SI_UNIT ( .MILLI., .METRE. ) );
#39 = ORIENTED_EDGE ( 'NONE', *, *, #227, .T. ) ;
#40 = FACE_OUTER_BOUND ( 'NONE', #109, .T. ) ;
#41 = DIRECTION ( 'NONE',  ( 1.000000000000000000, -2.498001805406600244E-16, -2.873899053520165107E-33 ) ) ;
#42 = VECTOR ( 'NONE', #152, 1000.000000000000000 ) ;
#43 = ORIENTED_EDGE ( 'NONE', *, *, #454, .T. ) ;
#44 = CARTESIAN_POINT ( 'NONE',  ( -21.02131479797535718, 1.958701674959500316, 82.17509050033226004 ) ) ;
#45 = CARTESIAN_POINT ( 'NONE',  ( 64.49662848148149408, 3.412376843071884824E-06, 71.44797367606352623 ) ) ;
#46 = CARTESIAN_POINT ( 'NONE',  ( -24.93015381042025780, 1.000005412376864689, 81.61956689446327573 ) ) ;
#47 = EDGE_LOOP ( 'NONE', ( #30, #161, #65, #335 ) ) ;
#48 = LINE ( 'NONE', #85, #467 ) ;
#49 = CARTESIAN_POINT ( 'NONE',  ( -21.23647580193271622, 1.183776581697089325, 74.21143353765863537 ) ) ;
#50 = CARTESIAN_POINT ( 'NONE',  ( -20.67316356690399459, 3.006439555186985579, 84.48018959997487798 ) ) ;
#51 = DIRECTION ( 'NONE',  ( 2.498001805406600244E-16, 1.000000000000000000, -7.308926516630639104E-17 ) ) ;
#52 = EDGE_CURVE ( 'NONE', #464, #301, #517, .T. ) ;
#53 = CARTESIAN_POINT ( 'NONE',  ( -20.66682871963190138, 3.024498919493415539, 68.33267462266488224 ) ) ;
#54 = VECTOR ( 'NONE', #29, 1000.000000000000000 ) ;
#55 = CARTESIAN_POINT ( 'NONE',  ( -24.93015381042022938, -0.9999985876231372028, 87.27643245766418545 ) ) ;
#56 = CARTESIAN_POINT ( 'NONE',  ( -20.84874322310213302, 2.499387114271314658, 68.33267462266488224 ) ) ;
#57 = LINE ( 'NONE', #561, #410 ) ;
#58 = ORIENTED_EDGE ( 'NONE', *, *, #3, .F. ) ;
#59 = CARTESIAN_POINT ( 'NONE',  ( -27.93015981042025686, 1.000005412376864689, 76.27641045766418415 ) ) ;
#60 = CARTESIAN_POINT ( 'NONE',  ( -21.50123749577622689, -0.2245607932535183260, 68.43077776781426280 ) ) ;
#61 = CARTESIAN_POINT ( 'NONE',  ( -20.85538704673049537, 2.475671185237118710, 86.14627245872517847 ) ) ;
#62 = CARTESIAN_POINT ( 'NONE',  ( -21.27818312409199564, 1.000005412376864689, 74.27640645766418004 ) ) ;
#63 = ORIENTED_EDGE ( 'NONE', *, *, #147, .F. ) ;
#64 = FACE_OUTER_BOUND ( 'NONE', #494, .T. ) ;
#65 = ORIENTED_EDGE ( 'NONE', *, *, #286, .T. ) ;
#66 = ORIENTED_EDGE ( 'NONE', *, *, #322, .T. ) ;
#67 = CARTESIAN_POINT ( 'NONE',  ( 64.49662848148149408, -0.9999985876231493043, 87.27643245766398650 ) ) ;
#68 = ORIENTED_EDGE ( 'NONE', *, *, #502, .F. ) ;
#69 = CARTESIAN_POINT ( 'NONE',  ( -24.93015381042025780, -9.000014587623144990, 76.27641045766418415 ) ) ;
#70 = CARTESIAN_POINT ( 'NONE',  ( -31.18016631042026177, 1.000005412376864689, 81.61956689446327573 ) ) ;
#71 = LINE ( 'NONE', #164, #315 ) ;
#72 = ORIENTED_EDGE ( 'NONE', *, *, #52, .F. ) ;
#73 = DIRECTION ( 'NONE',  ( -3.351228413831880129E-15, -1.466162431051447754E-15, -1.000000000000000000 ) ) ;
#74 = AXIS2_PLACEMENT_3D ( 'NONE', #354, #1, #272 ) ;
#75 = CARTESIAN_POINT ( 'NONE',  ( -21.58500368810927128, -0.9999985876231372028, 68.61954089446327032 ) ) ;
#76 = SHAPE_DEFINITION_REPRESENTATION ( #540, #429 ) ;
#77 = CARTESIAN_POINT ( 'NONE',  ( -24.93015381042025780, -0.9999985876231222148, 76.34696295958899270 ) ) ;
#78 = CARTESIAN_POINT ( 'NONE',  ( -21.37189005043930479, 0.5568895146672557805, 68.49366943497012983 ) ) ;
#79 = APPLICATION_PROTOCOL_DEFINITION ( 'draft international standard', 'automotive_design', 1998, #578 ) ;
#80 = CARTESIAN_POINT ( 'NONE',  ( -21.12412135701304550, 1.608985404999305979, 81.91317142545565844 ) ) ;
#81 = ADVANCED_FACE ( 'NONE', ( #125 ), #222, .T. ) ;
#82 = CARTESIAN_POINT ( 'NONE',  ( -20.95350522468588039, 2.175380128253074030, 73.51446949371660367 ) ) ;
#83 = VECTOR ( 'NONE', #8, 1000.000000000000000 ) ;
#84 = ORIENTED_EDGE ( 'NONE', *, *, #250, .F. ) ;
#85 = CARTESIAN_POINT ( 'NONE',  ( -27.93015981042025686, 1.000005412376864689, 79.54901039253853412 ) ) ;
#86 = FACE_OUTER_BOUND ( 'NONE', #498, .T. ) ;
#87 = ORIENTED_EDGE ( 'NONE', *, *, #134, .T. ) ;
#88 = CARTESIAN_POINT ( 'NONE',  ( -20.69129588812942089, 2.954798306555240117, 83.89072797783249769 ) ) ;
#89 = CARTESIAN_POINT ( 'NONE',  ( -31.18016631042026177, 3.412376869743258267E-06, 71.44797367606375360 ) ) ;
#90 = EDGE_CURVE ( 'NONE', #117, #508, #564, .T. ) ;
#91 = ORIENTED_EDGE ( 'NONE', *, *, #94, .F. ) ;
#92 = CARTESIAN_POINT ( 'NONE',  ( -21.40099279607554905, 0.4069846186147111911, 68.33267462266488224 ) ) ;
#93 = DIRECTION ( 'NONE',  ( -1.000000000000000000, 2.498001805406600244E-16, 2.081664007844154824E-15 ) ) ;
#94 = EDGE_CURVE ( 'NONE', #114, #287, #505, .T. ) ;
#95 = CARTESIAN_POINT ( 'NONE',  ( -20.76882934321664109, 2.733029678357679515, 68.33267462266488224 ) ) ;
#96 = CARTESIAN_POINT ( 'NONE',  ( -21.29724570129884498, 0.9397400565502137537, 87.32440950776117461 ) ) ;
#97 = ORIENTED_EDGE ( 'NONE', *, *, #147, .T. ) ;
#98 = CARTESIAN_POINT ( 'NONE',  ( -24.93015381042025780, -0.9999985876231372028, 68.61954089446327032 ) ) ;
#99 = DIRECTION ( 'NONE',  ( -1.000000000000000000, 2.498001805406600244E-16, 1.248390539085491922E-33 ) ) ;
#100 =( GEOMETRIC_REPRESENTATION_CONTEXT ( 3 ) GLOBAL_UNCERTAINTY_ASSIGNED_CONTEXT ( ( #430 ) ) GLOBAL_UNIT_ASSIGNED_CONTEXT ( ( #554, #139, #198 ) ) REPRESENTATION_CONTEXT ( 'NONE', 'WORKASPACE' ) );
#101 = DIRECTION ( 'NONE',  ( -3.351228413831880129E-15, -1.466162431051447754E-15, -1.000000000000000000 ) ) ;
#102 = AXIS2_PLACEMENT_3D ( 'NONE', #442, #31, #35 ) ;
#103 = EDGE_LOOP ( 'NONE', ( #362, #241, #510, #206 ) ) ;
#104 = PRESENTATION_STYLE_ASSIGNMENT (( #558 ) ) ;
#105 = ORIENTED_EDGE ( 'NONE', *, *, #399, .T. ) ;
#106 = CARTESIAN_POINT ( 'NONE',  ( -21.54806303617499452, -0.6228267386368229186, 87.40978284370993379 ) ) ;
#107 = ORIENTED_EDGE ( 'NONE', *, *, #562, .F. ) ;
#108 = DIRECTION ( 'NONE',  ( 1.000000000000000000, -2.498001805406600244E-16, -2.484124017598790126E-15 ) ) ;
#109 = EDGE_LOOP ( 'NONE', ( #560, #191, #24, #568 ) ) ;
#110 = VECTOR ( 'NONE', #41, 1000.000000000000000 ) ;
#111 = LINE ( 'NONE', #285, #278 ) ;
#112 = ORIENTED_EDGE ( 'NONE', *, *, #343, .T. ) ;
#113 = CARTESIAN_POINT ( 'NONE',  ( 64.49662848148149408, 3.412376846649751994E-06, 84.44799967606351743 ) ) ;
#114 = VERTEX_POINT ( 'NONE', #552 ) ;
#115 = EDGE_CURVE ( 'NONE', #114, #339, #553, .T. ) ;
#116 = DIRECTION ( 'NONE',  ( 2.498001805406600244E-16, 1.000000000000000000, -7.308926516630639104E-17 ) ) ;
#117 = VERTEX_POINT ( 'NONE', #369 ) ;
#118 = CARTESIAN_POINT ( 'NONE',  ( -20.95934566615379779, 2.157077614224971018, 69.36243532774088294 ) ) ;
#119 = DIRECTION ( 'NONE',  ( 1.000000000000000000, -2.891205793294690159E-16, 0.000000000000000000 ) ) ;
#120 = AXIS2_PLACEMENT_3D ( 'NONE', #531, #519, #425 ) ;
#121 = DIRECTION ( 'NONE',  ( 1.000000000000000000, -2.498001805406600244E-16, 0.000000000000000000 ) ) ;
#122 = ORIENTED_EDGE ( 'NONE', *, *, #523, .F. ) ;
#123 = ADVANCED_FACE ( 'NONE', ( #268 ), #308, .T. ) ;
#124 = CARTESIAN_POINT ( 'NONE',  ( -20.67879011866805072, 2.990466248121777859, 68.33267462266488224 ) ) ;
#125 = FACE_OUTER_BOUND ( 'NONE', #195, .T. ) ;
#126 = CARTESIAN_POINT ( 'NONE',  ( -27.93015981042025686, 1.000005412376864689, 76.27641045766418415 ) ) ;
#127 = ORIENTED_EDGE ( 'NONE', *, *, #406, .F. ) ;
#128 = CARTESIAN_POINT ( 'NONE',  ( -21.05531233088694165, 1.846158983808400045, 82.08248731061721060 ) ) ;
#129 = DIRECTION ( 'NONE',  ( 1.950610217321300056E-32, 7.308926516630639104E-17, 1.000000000000000000 ) ) ;
#130 = VECTOR ( 'NONE', #51, 1000.000000000000000 ) ;
#131 = ORIENTED_EDGE ( 'NONE', *, *, #352, .T. ) ;
#132 = CARTESIAN_POINT ( 'NONE',  ( -20.74924843264411933, 2.788327068175750156, 83.32229065357243769 ) ) ;
#133 = CARTESIAN_POINT ( 'NONE',  ( -21.58500368810927128, -0.9999985876231372028, 87.27643245766418545 ) ) ;
#134 = EDGE_CURVE ( 'NONE', #348, #587, #2, .T. ) ;
#135 = VERTEX_POINT ( 'NONE', #255 ) ;
#136 = CARTESIAN_POINT ( 'NONE',  ( -21.22702877015429124, 1.229247485822124952, 68.33267462266488224 ) ) ;
#137 = CARTESIAN_POINT ( 'NONE',  ( -24.93015381042025780, 3.412376868247059269E-06, 71.44797367606375360 ) ) ;
#138 = DIRECTION ( 'NONE',  ( -3.351228413832080105E-15, 2.303969534509555245E-15, -1.000000000000000000 ) ) ;
#139 =( NAMED_UNIT ( * ) PLANE_ANGLE_UNIT ( ) SI_UNIT ( $, .RADIAN. ) );
#140 = ORIENTED_EDGE ( 'NONE', *, *, #28, .T. ) ;
#141 = CARTESIAN_POINT ( 'NONE',  ( -20.70989902958713813, 2.901419726183313674, 85.21310512895863098 ) ) ;
#142 = CARTESIAN_POINT ( 'NONE',  ( -27.93015981042025686, -0.9999985876231372028, 79.56986339819425780 ) ) ;
#143 = CARTESIAN_POINT ( 'NONE',  ( -20.88467352784086017, 2.387229637283640127, 86.26606047427047486 ) ) ;
#144 = FACE_OUTER_BOUND ( 'NONE', #256, .T. ) ;
#145 = CARTESIAN_POINT ( 'NONE',  ( -27.93015981042025686, -9.000014587623144990, 76.27641045766418415 ) ) ;
#146 = VECTOR ( 'NONE', #518, 1000.000000000000000 ) ;
#147 = EDGE_CURVE ( 'NONE', #380, #296, #302, .T. ) ;
#148 = VERTEX_POINT ( 'NONE', #55 ) ;
#149 = DIRECTION ( 'NONE',  ( 1.000000000000000000, -2.498001805406600244E-16, -2.484124017598790126E-15 ) ) ;
#150 = LINE ( 'NONE', #334, #449 ) ;
#151 = ORIENTED_EDGE ( 'NONE', *, *, #370, .T. ) ;
#152 = DIRECTION ( 'NONE',  ( 2.368005725653459929E-14, -5.103460615632460100E-17, -1.000000000000000000 ) ) ;
#153 = VERTEX_POINT ( 'NONE', #133 ) ;
#154 = DIRECTION ( 'NONE',  ( -3.351228413832080105E-15, 2.303969534509555245E-15, -1.000000000000000000 ) ) ;
#155 = CARTESIAN_POINT ( 'NONE',  ( -27.93015981042025686, -0.9999985876231131110, 79.54901039253834938 ) ) ;
#156 = VECTOR ( 'NONE', #445, 1000.000000000000000 ) ;
#157 = FACE_OUTER_BOUND ( 'NONE', #437, .T. ) ;
#158 = ORIENTED_EDGE ( 'NONE', *, *, #322, .F. ) ;
#159 = CARTESIAN_POINT ( 'NONE',  ( -20.70442445676398080, 2.917125628911057866, 72.15000113276700233 ) ) ;
#160 = LINE ( 'NONE', #155, #549 ) ;
#161 = ORIENTED_EDGE ( 'NONE', *, *, #399, .F. ) ;
#162 = CARTESIAN_POINT ( 'NONE',  ( -20.69333562094866252, 2.948880127490220993, 72.00188416841761807 ) ) ;
#163 = CARTESIAN_POINT ( 'NONE',  ( -21.25128674025256004, 1.116340972208064386, 68.66295606374248450 ) ) ;
#164 = CARTESIAN_POINT ( 'NONE',  ( 64.49662848148149408, -0.9999985876231493043, 68.61954089446309979 ) ) ;
#165 = CARTESIAN_POINT ( 'NONE',  ( -20.67874827111325686, 2.990531230874085011, 71.70621329318916537 ) ) ;
#166 = EDGE_CURVE ( 'NONE', #296, #114, #228, .T. ) ;
#167 = CARTESIAN_POINT ( 'NONE',  ( -21.31372548904316133, 0.8402620390129488248, 68.56638887449528852 ) ) ;
#168 = CARTESIAN_POINT ( 'NONE',  ( -21.08369174176762684, 1.759517606721406002, 68.33267462266488224 ) ) ;
#169 = FACE_OUTER_BOUND ( 'NONE', #420, .T. ) ;
#170 = EDGE_LOOP ( 'NONE', ( #547, #87, #485, #43 ) ) ;
#171 = CARTESIAN_POINT ( 'NONE',  ( -20.76882934321664109, 2.733029678357679515, 87.58127198644831424 ) ) ;
#172 = CARTESIAN_POINT ( 'NONE',  ( -20.92173736760751623, 2.274273723478219100, 73.40691908202842342 ) ) ;
#173 = EDGE_CURVE ( 'NONE', #188, #231, #224, .T. ) ;
#174 = CARTESIAN_POINT ( 'NONE',  ( -20.81841860865608851, 2.585546700792895169, 82.92521081545476136 ) ) ;
#175 = CARTESIAN_POINT ( 'NONE',  ( 64.49662848148149408, 1.000005412376845371, 81.61956689446310520 ) ) ;
#176 = VECTOR ( 'NONE', #456, 1000.000000000000000 ) ;
#177 = CARTESIAN_POINT ( 'NONE',  ( -21.40099279607554905, 0.4069846186147111911, 87.58127198644831424 ) ) ;
#178 = CARTESIAN_POINT ( 'NONE',  ( -27.93015981042025686, -11.77508144530790624, 79.56986339819425780 ) ) ;
#179 = CARTESIAN_POINT ( 'NONE',  ( -20.96272624528067752, 2.148635559906705073, 82.34445342739840612 ) ) ;
#180 = DIRECTION ( 'NONE',  ( 2.498001805406600244E-16, 1.000000000000000000, 0.000000000000000000 ) ) ;
#181 = B_SPLINE_SURFACE_WITH_KNOTS ( 'NONE', 3, 1, ( 
 ( #506, #397 ),
 ( #53, #462 ),
 ( #124, #408 ),
 ( #95, #171 ),
 ( #56, #582 ),
 ( #551, #368 ),
 ( #168, #545 ),
 ( #136, #452 ),
 ( #267, #317 ),
 ( #92, #177 ),
 ( #591, #320 ),
 ( #542, #504 ),
 ( #404, #221 ),
 ( #309, #492 ) ),
 .UNSPECIFIED., .F., .F., .F.,
 ( 4, 2, 2, 2, 2, 2, 4 ),
 ( 2, 2 ),
 ( 0.3557144590858800082, 0.3750000000000000000, 0.5000000000000000000, 0.6250000000000000000, 0.7500000000000000000, 0.8750000000000000000, 1.000000000000000000 ),
 ( 0.000000000000000000, 1.000000000000000000 ),
 .UNSPECIFIED. ) ;
#182 = CARTESIAN_POINT ( 'NONE',  ( -20.73317904391107547, 2.834414323760314325, 85.43122728745353811 ) ) ;
#183 = ADVANCED_FACE ( 'NONE', ( #86 ), #261, .T. ) ;
#184 = CARTESIAN_POINT ( 'NONE',  ( -20.91568740510854241, 2.292549432254756603, 86.38325982139203063 ) ) ;
#185 = VECTOR ( 'NONE', #99, 1000.000000000000000 ) ;
#186 = ORIENTED_EDGE ( 'NONE', *, *, #134, .F. ) ;
#187 = CARTESIAN_POINT ( 'NONE',  ( -21.09358413619134609, 1.716270855671708340, 86.91068968237286185 ) ) ;
#188 = VERTEX_POINT ( 'NONE', #372 ) ;
#189 = CARTESIAN_POINT ( 'NONE',  ( -21.37517444672665690, 0.5616042294642649146, 87.42115879708163106 ) ) ;
#190 = EDGE_CURVE ( 'NONE', #328, #339, #490, .T. ) ;
#191 = ORIENTED_EDGE ( 'NONE', *, *, #523, .T. ) ;
#192 = CARTESIAN_POINT ( 'NONE',  ( -21.58500368810927128, -0.9999985876231372028, 87.27643245766418545 ) ) ;
#193 = CARTESIAN_POINT ( 'NONE',  ( 64.49662848148149408, 1.000005412376845371, 74.50005913219111164 ) ) ;
#194 = FACE_OUTER_BOUND ( 'NONE', #292, .T. ) ;
#195 = EDGE_LOOP ( 'NONE', ( #262, #427, #441, #122 ) ) ;
#196 = DIRECTION ( 'NONE',  ( 2.498001805406600244E-16, 1.000000000000000000, -7.308926516630639104E-17 ) ) ;
#197 = DIRECTION ( 'NONE',  ( 0.000000000000000000, 0.000000000000000000, 1.000000000000000000 ) ) ;
#198 =( NAMED_UNIT ( * ) SI_UNIT ( $, .STERADIAN. ) SOLID_ANGLE_UNIT ( ) );
#199 = CARTESIAN_POINT ( 'NONE',  ( -20.67639683143904250, 2.997268580715907405, 71.21059867744402538 ) ) ;
#200 = CARTESIAN_POINT ( 'NONE',  ( -24.93015381042025780, 1.000005412376864689, 79.54901039253849149 ) ) ;
#201 = DIRECTION ( 'NONE',  ( 0.000000000000000000, -1.000000000000000000, 0.000000000000000000 ) ) ;
#202 = VERTEX_POINT ( 'NONE', #398 ) ;
#203 = CIRCLE ( 'NONE', #74, 3.000005999999999950 ) ;
#204 = CARTESIAN_POINT ( 'NONE',  ( -24.93015381042025780, 1.000005412376864689, 76.34696295958899270 ) ) ;
#205 = CARTESIAN_POINT ( 'NONE',  ( 64.49662848148149408, -0.9999985876231493043, 68.61954089446309979 ) ) ;
#206 = ORIENTED_EDGE ( 'NONE', *, *, #115, .F. ) ;
#207 = CARTESIAN_POINT ( 'NONE',  ( -21.40703424360305007, 0.3630666081734676975, 68.46355595655867887 ) ) ;
#208 = LINE ( 'NONE', #392, #269 ) ;
#209 = DIRECTION ( 'NONE',  ( -1.000000000000000000, 2.498001805406600244E-16, 2.081664007844154824E-15 ) ) ;
#210 = ORIENTED_EDGE ( 'NONE', *, *, #115, .T. ) ;
#211 = ADVANCED_FACE ( 'NONE', ( #169 ), #439, .F. ) ;
#212 = CARTESIAN_POINT ( 'NONE',  ( -20.69667397128286623, 2.939359776521322409, 70.81548156978284680 ) ) ;
#213 = DIRECTION ( 'NONE',  ( 1.000000000000000000, 0.000000000000000000, -2.484124017598790126E-15 ) ) ;
#214 = AXIS2_PLACEMENT_3D ( 'NONE', #349, #539, #307 ) ;
#215 = CARTESIAN_POINT ( 'NONE',  ( 0.000000000000000000, 0.000000000000000000, 0.000000000000000000 ) ) ;
#216 = VERTEX_POINT ( 'NONE', #395 ) ;
#217 = CARTESIAN_POINT ( 'NONE',  ( -21.19239997347951743, 1.358827240159226513, 81.76582237763520311 ) ) ;
#218 = CARTESIAN_POINT ( 'NONE',  ( -20.99798490396784345, 2.034319578209506041, 73.65339916131954112 ) ) ;
#219 = DIRECTION ( 'NONE',  ( 0.000000000000000000, -1.000000000000000000, 0.000000000000000000 ) ) ;
#220 = ORIENTED_EDGE ( 'NONE', *, *, #190, .F. ) ;
#221 = CARTESIAN_POINT ( 'NONE',  ( -21.55787582370989242, -0.7230173694040522570, 87.58127198644831424 ) ) ;
#222 = PLANE ( 'NONE',  #366 ) ;
#223 = DIRECTION ( 'NONE',  ( -1.000000000000000000, 2.498001805406600244E-16, 2.484124017598790126E-15 ) ) ;
#224 = LINE ( 'NONE', #178, #417 ) ;
#225 = VECTOR ( 'NONE', #480, 1000.000000000000000 ) ;
#226 = CARTESIAN_POINT ( 'NONE',  ( -21.27818312409199564, 1.000005412376864689, 81.61956689446327573 ) ) ;
#227 = EDGE_CURVE ( 'NONE', #457, #328, #435, .T. ) ;
#228 = LINE ( 'NONE', #318, #176 ) ;
#229 = CARTESIAN_POINT ( 'NONE',  ( -21.16236418190715796, 1.468662763394504633, 87.06446181970916598 ) ) ;
#230 = DIRECTION ( 'NONE',  ( 2.113161068764770214E-32, 7.308926516630639104E-17, 1.000000000000000000 ) ) ;
#231 = VERTEX_POINT ( 'NONE', #254 ) ;
#232 = CARTESIAN_POINT ( 'NONE',  ( -21.02425746708223642, 1.951835072183705888, 86.73480773826656787 ) ) ;
#233 = MECHANICAL_DESIGN_GEOMETRIC_PRESENTATION_REPRESENTATION (  '', ( #364 ), #100 ) ;
#234 = ADVANCED_FACE ( 'NONE', ( #40 ), #260, .T. ) ;
#235 = LINE ( 'NONE', #282, #146 ) ;
#236 = ORIENTED_EDGE ( 'NONE', *, *, #250, .T. ) ;
#237 = DIRECTION ( 'NONE',  ( 2.511029090215010219E-15, 1.096338977494589887E-16, 1.000000000000000000 ) ) ;
#238 = AXIS2_PLACEMENT_3D ( 'NONE', #341, #281, #520 ) ;
#239 = CYLINDRICAL_SURFACE ( 'NONE', #461, 3.000005999999999950 ) ;
#240 = AXIS2_PLACEMENT_3D ( 'NONE', #145, #230, #331 ) ;
#241 = ORIENTED_EDGE ( 'NONE', *, *, #562, .T. ) ;
#242 = EDGE_CURVE ( 'NONE', #216, #188, #48, .T. ) ;
#243 = LINE ( 'NONE', #388, #225 ) ;
#244 = LINE ( 'NONE', #205, #486 ) ;
#245 = CARTESIAN_POINT ( 'NONE',  ( -20.91682378205691961, 2.289390503210031902, 69.50668162670719141 ) ) ;
#246 = LINE ( 'NONE', #204, #580 ) ;
#247 = VECTOR ( 'NONE', #237, 1000.000000000000000 ) ;
#248 = CARTESIAN_POINT ( 'NONE',  ( -20.83172912189937165, 2.546086085013575140, 69.86052886284502961 ) ) ;
#249 = CARTESIAN_POINT ( 'NONE',  ( -20.89643273487114072, 2.351661965398600174, 69.58263706224336431 ) ) ;
#250 = EDGE_CURVE ( 'NONE', #394, #524, #203, .T. ) ;
#251 = UNCERTAINTY_MEASURE_WITH_UNIT (LENGTH_MEASURE( 1.000000000000000082E-05 ), #38, 'distance_accuracy_value', 'NONE');
#252 = CARTESIAN_POINT ( 'NONE',  ( -20.76481710764217681, 2.742751824820394813, 72.66448735421123217 ) ) ;
#253 = DIRECTION ( 'NONE',  ( 1.000000000000000000, 0.000000000000000000, 0.000000000000000000 ) ) ;
#254 = CARTESIAN_POINT ( 'NONE',  ( -27.93015981042025686, -0.9999985876231131110, 79.56986339819425780 ) ) ;
#255 = CARTESIAN_POINT ( 'NONE',  ( -24.93015381042025780, -0.9999985876231131110, 79.56986339819425780 ) ) ;
#256 = EDGE_LOOP ( 'NONE', ( #107, #66, #336, #503, #433, #378, #112, #68, #186, #105, #131, #16 ) ) ;
#257 = CARTESIAN_POINT ( 'NONE',  ( -21.10118403563508238, 1.689828469631813324, 81.96647193422273858 ) ) ;
#258 = CARTESIAN_POINT ( 'NONE',  ( 64.49662848148149408, -0.9999985876231493043, 76.27641045766418415 ) ) ;
#259 = CYLINDRICAL_SURFACE ( 'NONE', #536, 3.000005999999999950 ) ;
#260 = PLANE ( 'NONE',  #496 ) ;
#261 = PLANE ( 'NONE',  #288 ) ;
#262 = ORIENTED_EDGE ( 'NONE', *, *, #343, .F. ) ;
#263 = CARTESIAN_POINT ( 'NONE',  ( -20.68092520566738912, 2.984329844960755818, 84.08278157709634115 ) ) ;
#264 = DIRECTION ( 'NONE',  ( -1.000000000000000000, 0.000000000000000000, 2.484124017598790126E-15 ) ) ;
#265 = PRODUCT ( 'Wrist Hinge 2 RH60', 'Wrist Hinge 2 RH60', '', ( #311 ) ) ;
#266 = ORIENTED_EDGE ( 'NONE', *, *, #469, .F. ) ;
#267 = CARTESIAN_POINT ( 'NONE',  ( -21.29108552023324918, 0.9569926896169298480, 68.33267462266488224 ) ) ;
#268 = FACE_OUTER_BOUND ( 'NONE', #359, .T. ) ;
#269 = VECTOR ( 'NONE', #149, 1000.000000000000000 ) ;
#270 = AXIS2_PLACEMENT_3D ( 'NONE', #113, #572, #201 ) ;
#271 = ADVANCED_FACE ( 'NONE', ( #323 ), #181, .F. ) ;
#272 = DIRECTION ( 'NONE',  ( 0.000000000000000000, -1.000000000000000000, 0.000000000000000000 ) ) ;
#273 = CARTESIAN_POINT ( 'NONE',  ( -20.72470909767143610, 2.858833584300568109, 85.35793096088035270 ) ) ;
#274 = LINE ( 'NONE', #416, #83 ) ;
#275 = FILL_AREA_STYLE_COLOUR ( '', #521 ) ;
#276 = CARTESIAN_POINT ( 'NONE',  ( -21.58500368810927128, -0.9999985876231372028, 68.61954089446327032 ) ) ;
#277 = PLANE ( 'NONE',  #240 ) ;
#278 = VECTOR ( 'NONE', #346, 1000.000000000000000 ) ;
#279 = ORIENTED_EDGE ( 'NONE', *, *, #90, .F. ) ;
#280 = ORIENTED_EDGE ( 'NONE', *, *, #454, .F. ) ;
#281 = DIRECTION ( 'NONE',  ( -1.000000000000000000, 2.498001805406600244E-16, 2.081664007844154824E-15 ) ) ;
#282 = CARTESIAN_POINT ( 'NONE',  ( -31.18016631042026177, -0.9999985876231372028, 74.27640645766418004 ) ) ;
#283 = ORIENTED_EDGE ( 'NONE', *, *, #533, .T. ) ;
#284 = EDGE_LOOP ( 'NONE', ( #387, #353, #529, #12 ) ) ;
#285 = CARTESIAN_POINT ( 'NONE',  ( 64.49662848148149408, 1.000005412376848035, 74.27640645766399530 ) ) ;
#286 = EDGE_CURVE ( 'NONE', #348, #153, #5, .T. ) ;
#287 = VERTEX_POINT ( 'NONE', #59 ) ;
#288 = AXIS2_PLACEMENT_3D ( 'NONE', #137, #321, #180 ) ;
#289 = CARTESIAN_POINT ( 'NONE',  ( -20.84021789467623265, 2.520829250198822979, 69.82073838275951516 ) ) ;
#290 = CARTESIAN_POINT ( 'NONE',  ( -21.16362706760734369, 1.468601373483672923, 68.82497300494686954 ) ) ;
#291 = CARTESIAN_POINT ( 'NONE',  ( -31.18016631042026177, -0.9999985876231251014, 87.27643245766418545 ) ) ;
#292 = EDGE_LOOP ( 'NONE', ( #84, #423, #384, #316 ) ) ;
#293 = CARTESIAN_POINT ( 'NONE',  ( -20.80570497953043230, 2.623188426169279275, 69.98889169737077509 ) ) ;
#294 = CARTESIAN_POINT ( 'NONE',  ( -20.98092308749480495, 2.088873687510680810, 69.29409379467298891 ) ) ;
#295 = PLANE ( 'NONE',  #571 ) ;
#296 = VERTEX_POINT ( 'NONE', #11 ) ;
#297 = CARTESIAN_POINT ( 'NONE',  ( -20.71727030695202743, 2.880260803465374497, 72.29287006428442908 ) ) ;
#298 = CARTESIAN_POINT ( 'NONE',  ( -21.02521443999089357, 1.946334922423116121, 69.16291172270472032 ) ) ;
#299 = CARTESIAN_POINT ( 'NONE',  ( -27.93015981042023199, 3.412376868865054508E-06, 84.44799967606370217 ) ) ;
#300 = VECTOR ( 'NONE', #154, 1000.000000000000000 ) ;
#301 = VERTEX_POINT ( 'NONE', #62 ) ;
#302 = CIRCLE ( 'NONE', #438, 3.000005999999999506 ) ;
#303 = EDGE_CURVE ( 'NONE', #380, #117, #57, .T. ) ;
#304 = CARTESIAN_POINT ( 'NONE',  ( -24.93015381042025780, 1.000005412376864689, 76.27641045766418415 ) ) ;
#305 = PRODUCT_RELATED_PRODUCT_CATEGORY ( 'part', '', ( #265 ) ) ;
#306 = DIRECTION ( 'NONE',  ( -1.000000000000000000, 2.498001805406600244E-16, 2.484124017598790126E-15 ) ) ;
#307 = DIRECTION ( 'NONE',  ( 2.312960008715725786E-15, 0.000000000000000000, 1.000000000000000000 ) ) ;
#308 = CYLINDRICAL_SURFACE ( 'NONE', #374, 3.000005999999999950 ) ;
#309 = CARTESIAN_POINT ( 'NONE',  ( -21.58500368810927128, -0.9999985876231372028, 68.33267462266488224 ) ) ;
#310 = CARTESIAN_POINT ( 'NONE',  ( -20.83541982135269421, 2.535111298249635770, 73.05293004480179775 ) ) ;
#311 = PRODUCT_CONTEXT ( 'NONE', #578, 'mechanical' ) ;
#312 = ORIENTED_EDGE ( 'NONE', *, *, #166, .T. ) ;
#313 = CARTESIAN_POINT ( 'NONE',  ( -20.84373880519596867, 2.510432255011396663, 82.80179247715767588 ) ) ;
#314 = DIRECTION ( 'NONE',  ( -2.498001805406600244E-16, -1.000000000000000000, 7.308926516630639104E-17 ) ) ;
#315 = VECTOR ( 'NONE', #306, 1000.000000000000000 ) ;
#316 = ORIENTED_EDGE ( 'NONE', *, *, #357, .T. ) ;
#317 = CARTESIAN_POINT ( 'NONE',  ( -21.29108552023324918, 0.9569926896169298480, 87.58127198644831424 ) ) ;
#318 = CARTESIAN_POINT ( 'NONE',  ( -27.93015981042025686, -0.9999985876231222148, 76.34696295958909218 ) ) ;
#319 = EDGE_LOOP ( 'NONE', ( #312, #210, #220, #127, #367, #280, #10, #140, #403, #566, #541, #266 ) ) ;
#320 = CARTESIAN_POINT ( 'NONE',  ( -21.44726666102666002, 0.1278642715888694548, 87.58127198644831424 ) ) ;
#321 = DIRECTION ( 'NONE',  ( -1.000000000000000000, 2.498001805406600244E-16, 2.484124017598790126E-15 ) ) ;
#322 = EDGE_CURVE ( 'NONE', #287, #380, #150, .T. ) ;
#323 = FACE_OUTER_BOUND ( 'NONE', #47, .T. ) ;
#324 = VECTOR ( 'NONE', #119, 1000.000000000000000 ) ;
#325 = AXIS2_PLACEMENT_3D ( 'NONE', #193, #196, #555 ) ;
#326 = DIRECTION ( 'NONE',  ( -1.000000000000000000, 2.498001805406600244E-16, 2.484124017598790126E-15 ) ) ;
#327 = EDGE_CURVE ( 'NONE', #508, #394, #235, .T. ) ;
#328 = VERTEX_POINT ( 'NONE', #98 ) ;
#329 = CARTESIAN_POINT ( 'NONE',  ( -20.92642771774365684, 2.259474635725915448, 86.42170992080785652 ) ) ;
#330 = ADVANCED_FACE ( 'NONE', ( #509 ), #277, .F. ) ;
#331 = DIRECTION ( 'NONE',  ( 0.000000000000000000, -1.000000000000000000, 7.308926516630639104E-17 ) ) ;
#332 = VECTOR ( 'NONE', #197, 1000.000000000000000 ) ;
#333 = PLANE ( 'NONE',  #325 ) ;
#334 = CARTESIAN_POINT ( 'NONE',  ( -27.93015981042025686, 1.000005412376864689, 76.34696295958909218 ) ) ;
#335 = ORIENTED_EDGE ( 'NONE', *, *, #489, .F. ) ;
#336 = ORIENTED_EDGE ( 'NONE', *, *, #303, .T. ) ;
#337 = DIRECTION ( 'NONE',  ( -1.000000000000000000, 2.498001805406600244E-16, 2.484124017598790126E-15 ) ) ;
#338 = MANIFOLD_SOLID_BREP ( 'NONE', #26 ) ;
#339 = VERTEX_POINT ( 'NONE', #20 ) ;
#340 = CARTESIAN_POINT ( 'NONE',  ( 64.49662848148149408, 1.000005412376845371, 81.61956689446310520 ) ) ;
#341 = CARTESIAN_POINT ( 'NONE',  ( -27.93015981042023199, 3.412376868865054508E-06, 84.44799967606370217 ) ) ;
#342 = CARTESIAN_POINT ( 'NONE',  ( -21.27818312409199564, 1.000005412376864689, 75.32096476823792841 ) ) ;
#343 = EDGE_CURVE ( 'NONE', #188, #202, #514, .T. ) ;
#344 = FACE_OUTER_BOUND ( 'NONE', #319, .T. ) ;
#345 = PRODUCT_DEFINITION_CONTEXT ( 'detailed design', #500, 'design' ) ;
#346 = DIRECTION ( 'NONE',  ( -1.000000000000000000, 2.498001805406600244E-16, 2.484124017598790126E-15 ) ) ;
#347 = AXIS2_PLACEMENT_3D ( 'NONE', #215, #446, #253 ) ;
#348 = VERTEX_POINT ( 'NONE', #440 ) ;
#349 = CARTESIAN_POINT ( 'NONE',  ( -24.93015381042025780, 3.412376868247059269E-06, 71.44797367606375360 ) ) ;
#350 = CARTESIAN_POINT ( 'NONE',  ( -20.77221315164289450, 2.721211944812850447, 72.71185619580239745 ) ) ;
#351 = CARTESIAN_POINT ( 'NONE',  ( -21.26197260901173181, 1.070879661344027678, 68.64515812150683871 ) ) ;
#352 = EDGE_CURVE ( 'NONE', #301, #457, #111, .T. ) ;
#353 = ORIENTED_EDGE ( 'NONE', *, *, #242, .F. ) ;
#354 = CARTESIAN_POINT ( 'NONE',  ( -31.18016631042026177, 3.412376869743258267E-06, 84.44799967606370217 ) ) ;
#355 = CARTESIAN_POINT ( 'NONE',  ( -21.09908784893968559, 1.700425666702167327, 73.92737870107768572 ) ) ;
#356 = DIRECTION ( 'NONE',  ( 1.000000000000000000, 0.000000000000000000, -2.484124017598790126E-15 ) ) ;
#357 = EDGE_CURVE ( 'NONE', #216, #524, #477, .T. ) ;
#358 = EDGE_CURVE ( 'NONE', #148, #587, #581, .T. ) ;
#359 = EDGE_LOOP ( 'NONE', ( #97, #400, #279, #544 ) ) ;
#360 = CARTESIAN_POINT ( 'NONE',  ( -24.93015381042022938, 3.412376868247059269E-06, 84.44799967606370217 ) ) ;
#361 = CARTESIAN_POINT ( 'NONE',  ( -27.93015981042025686, -9.000014587623144990, 76.27641045766418415 ) ) ;
#362 = ORIENTED_EDGE ( 'NONE', *, *, #94, .T. ) ;
#363 = CARTESIAN_POINT ( 'NONE',  ( -20.80620707201930841, 2.621610257835325530, 82.98782834218897619 ) ) ;
#364 = STYLED_ITEM ( 'NONE', ( #104 ), #338 ) ;
#365 = CARTESIAN_POINT ( 'NONE',  ( -21.19180937741655057, 1.361259743833461267, 74.12863340234021337 ) ) ;
#366 = AXIS2_PLACEMENT_3D ( 'NONE', #543, #129, #546 ) ;
#367 = ORIENTED_EDGE ( 'NONE', *, *, #489, .T. ) ;
#368 = CARTESIAN_POINT ( 'NONE',  ( -21.00627148317257209, 2.012854563098778637, 87.58127198644831424 ) ) ;
#369 = CARTESIAN_POINT ( 'NONE',  ( -31.18016631042026177, 1.000005412376864689, 74.27640645766418004 ) ) ;
#370 = EDGE_CURVE ( 'NONE', #339, #563, #574, .T. ) ;
#371 = CARTESIAN_POINT ( 'NONE',  ( -20.79467424699187816, 2.655483473727249244, 83.05180840530184128 ) ) ;
#372 = CARTESIAN_POINT ( 'NONE',  ( -27.93015981042025686, 1.000005412376864689, 79.56986339819425780 ) ) ;
#373 =( GEOMETRIC_REPRESENTATION_CONTEXT ( 3 ) GLOBAL_UNCERTAINTY_ASSIGNED_CONTEXT ( ( #251 ) ) GLOBAL_UNIT_ASSIGNED_CONTEXT ( ( #38, #576, #488 ) ) REPRESENTATION_CONTEXT ( 'NONE', 'WORKASPACE' ) );
#374 = AXIS2_PLACEMENT_3D ( 'NONE', #45, #213, #402 ) ;
#375 = CARTESIAN_POINT ( 'NONE',  ( -20.69076005511820426, 2.956251466103096526, 84.97042988781912243 ) ) ;
#376 = ORIENTED_EDGE ( 'NONE', *, *, #352, .F. ) ;
#377 = CARTESIAN_POINT ( 'NONE',  ( -21.19576877087926903, 1.341328943066784518, 87.13189956056152141 ) ) ;
#378 = ORIENTED_EDGE ( 'NONE', *, *, #242, .T. ) ;
#379 = CARTESIAN_POINT ( 'NONE',  ( -20.97920670443880908, 2.095721137504491516, 86.60334011601123905 ) ) ;
#380 = VERTEX_POINT ( 'NONE', #570 ) ;
#381 = CARTESIAN_POINT ( 'NONE',  ( -20.69737453180032105, 2.937339237209369180, 85.06774447455320853 ) ) ;
#382 = AXIS2_PLACEMENT_3D ( 'NONE', #393, #537, #121 ) ;
#383 = ADVANCED_FACE ( 'NONE', ( #194 ), #386, .T. ) ;
#384 = ORIENTED_EDGE ( 'NONE', *, *, #507, .T. ) ;
#385 = DIRECTION ( 'NONE',  ( 1.000000000000000000, 0.000000000000000000, -2.484124017598790126E-15 ) ) ;
#386 = CYLINDRICAL_SURFACE ( 'NONE', #270, 3.000005999999999950 ) ;
#387 = ORIENTED_EDGE ( 'NONE', *, *, #173, .F. ) ;
#388 = CARTESIAN_POINT ( 'NONE',  ( -24.93015381042025780, -11.77508144530790624, 79.56986339819425780 ) ) ;
#389 = VECTOR ( 'NONE', #583, 1000.000000000000000 ) ;
#390 = CARTESIAN_POINT ( 'NONE',  ( -20.70036761918981583, 2.928750158943439263, 72.09991267478976340 ) ) ;
#391 = DIRECTION ( 'NONE',  ( 2.498001805406600244E-16, 1.000000000000000000, 0.000000000000000000 ) ) ;
#392 = CARTESIAN_POINT ( 'NONE',  ( 64.49662848148149408, -0.9999985876231493043, 87.27643245766398650 ) ) ;
#393 = CARTESIAN_POINT ( 'NONE',  ( 64.49662848148149408, -0.9999985876231493043, 74.50005913219111164 ) ) ;
#394 = VERTEX_POINT ( 'NONE', #291 ) ;
#395 = CARTESIAN_POINT ( 'NONE',  ( -27.93015981042025686, 1.000005412376864689, 81.61956689446327573 ) ) ;
#396 = CARTESIAN_POINT ( 'NONE',  ( -20.67320345508123225, 3.006325513258186088, 71.40832291940392906 ) ) ;
#397 = CARTESIAN_POINT ( 'NONE',  ( -20.65494272185178204, 3.058156330143159796, 87.58127198644831424 ) ) ;
#398 = CARTESIAN_POINT ( 'NONE',  ( -24.93015381042025780, 1.000005412376864689, 79.56986339819425780 ) ) ;
#399 = EDGE_CURVE ( 'NONE', #348, #301, #23, .T. ) ;
#400 = ORIENTED_EDGE ( 'NONE', *, *, #469, .T. ) ;
#401 = CARTESIAN_POINT ( 'NONE',  ( -20.91952423734284849, 2.281675792070309239, 82.48963291663238806 ) ) ;
#402 = DIRECTION ( 'NONE',  ( 0.000000000000000000, -1.000000000000000000, 0.000000000000000000 ) ) ;
#403 = ORIENTED_EDGE ( 'NONE', *, *, #415, .T. ) ;
#404 = CARTESIAN_POINT ( 'NONE',  ( -21.55787582370989242, -0.7230173694040522570, 68.33267462266488224 ) ) ;
#405 = CARTESIAN_POINT ( 'NONE',  ( -20.90148400783124316, 2.336260260073439454, 73.33246667645738626 ) ) ;
#406 = EDGE_CURVE ( 'NONE', #464, #328, #244, .T. ) ;
#407 = ORIENTED_EDGE ( 'NONE', *, *, #406, .T. ) ;
#408 = CARTESIAN_POINT ( 'NONE',  ( -20.67879011866805072, 2.990466248121777859, 87.58127198644831424 ) ) ;
#409 = CARTESIAN_POINT ( 'NONE',  ( -20.86279507435031633, 2.453261132660049526, 73.17541320785039716 ) ) ;
#410 = VECTOR ( 'NONE', #326, 1000.000000000000000 ) ;
#411 = CARTESIAN_POINT ( 'NONE',  ( -20.86181698125616535, 2.456373929217454233, 82.72193587185491026 ) ) ;
#412 = CARTESIAN_POINT ( 'NONE',  ( -20.80970435273690100, 2.611398070848619746, 72.92798345887766231 ) ) ;
#413 = SURFACE_SIDE_STYLE ('',( #9 ) ) ;
#414 = CARTESIAN_POINT ( 'NONE',  ( -20.67608417117678599, 2.998156314854437010, 84.67726367622563544 ) ) ;
#415 = EDGE_CURVE ( 'NONE', #231, #478, #160, .T. ) ;
#416 = CARTESIAN_POINT ( 'NONE',  ( -24.93015381042025780, -0.9999985876231131110, 79.54901039253834938 ) ) ;
#417 = VECTOR ( 'NONE', #314, 1000.000000000000000 ) ;
#418 = CARTESIAN_POINT ( 'NONE',  ( -20.83719555281008695, 2.529932121148623647, 86.06444146289592823 ) ) ;
#419 = CARTESIAN_POINT ( 'NONE',  ( -21.18488748457692239, 1.383399141819206646, 87.11045495911416481 ) ) ;
#420 = EDGE_LOOP ( 'NONE', ( #236, #58, #584, #444 ) ) ;
#421 = CARTESIAN_POINT ( 'NONE',  ( -20.73019235899590740, 2.843030584373031466, 85.40607889950094034 ) ) ;
#422 = ADVANCED_FACE ( 'NONE', ( #344 ), #522, .F. ) ;
#423 = ORIENTED_EDGE ( 'NONE', *, *, #559, .T. ) ;
#424 = CARTESIAN_POINT ( 'NONE',  ( -31.18016631042026177, -0.9999985876231372028, 68.61954089446339822 ) ) ;
#425 = DIRECTION ( 'NONE',  ( 2.498001805406600244E-16, 1.000000000000000000, 0.000000000000000000 ) ) ;
#426 = ORIENTED_EDGE ( 'NONE', *, *, #190, .T. ) ;
#427 = ORIENTED_EDGE ( 'NONE', *, *, #173, .T. ) ;
#428 = CARTESIAN_POINT ( 'NONE',  ( -27.93015981042025686, 1.000005412376864689, 79.56986339819425780 ) ) ;
#429 = ADVANCED_BREP_SHAPE_REPRESENTATION ( 'Wrist Hinge 2 RH60', ( #338, #347 ), #373 ) ;
#430 = UNCERTAINTY_MEASURE_WITH_UNIT (LENGTH_MEASURE( 1.000000000000000082E-05 ), #554, 'distance_accuracy_value', 'NONE');
#431 = CARTESIAN_POINT ( 'NONE',  ( -21.29347121541324128, 0.9333924729552057764, 68.59517111618878005 ) ) ;
#432 = LINE ( 'NONE', #67, #27 ) ;
#433 = ORIENTED_EDGE ( 'NONE', *, *, #357, .F. ) ;
#434 = CARTESIAN_POINT ( 'NONE',  ( -20.85827222566191352, 2.466840572093237149, 69.73996647009032301 ) ) ;
#435 = CIRCLE ( 'NONE', #214, 3.000005999999999506 ) ;
#436 = DIRECTION ( 'NONE',  ( 1.000000000000000000, -2.668805347656604985E-16, 0.000000000000000000 ) ) ;
#437 = EDGE_LOOP ( 'NONE', ( #91, #474, #63, #158 ) ) ;
#438 = AXIS2_PLACEMENT_3D ( 'NONE', #550, #93, #592 ) ;
#439 = PLANE ( 'NONE',  #102 ) ;
#440 = CARTESIAN_POINT ( 'NONE',  ( -21.27818312409199564, 1.000005412376864689, 81.61956689446327573 ) ) ;
#441 = ORIENTED_EDGE ( 'NONE', *, *, #28, .F. ) ;
#442 = CARTESIAN_POINT ( 'NONE',  ( -31.18016631042026177, 3.412376872150187090E-06, 71.44797367606381044 ) ) ;
#443 = CARTESIAN_POINT ( 'NONE',  ( -20.71330593891610405, 2.891821947673855142, 70.62458024097662701 ) ) ;
#444 = ORIENTED_EDGE ( 'NONE', *, *, #327, .T. ) ;
#445 = DIRECTION ( 'NONE',  ( 3.351228413831880129E-15, 7.226086267324990542E-15, 1.000000000000000000 ) ) ;
#446 = DIRECTION ( 'NONE',  ( 0.000000000000000000, 0.000000000000000000, 1.000000000000000000 ) ) ;
#447 = CIRCLE ( 'NONE', #238, 3.000005999999999506 ) ;
#448 = CARTESIAN_POINT ( 'NONE',  ( -21.06678030751108821, 1.807522804583942433, 82.05269893661353819 ) ) ;
#449 = VECTOR ( 'NONE', #101, 1000.000000000000000 ) ;
#450 = CARTESIAN_POINT ( 'NONE',  ( -20.96432363618068351, 2.141426220142319092, 73.54963159816794871 ) ) ;
#451 = FACE_OUTER_BOUND ( 'NONE', #170, .T. ) ;
#452 = CARTESIAN_POINT ( 'NONE',  ( -21.22702877015429124, 1.229247485822124952, 87.58127198644831424 ) ) ;
#453 = CARTESIAN_POINT ( 'NONE',  ( -21.27818312409199564, 1.000005412376864689, 74.27640645766418004 ) ) ;
#454 = EDGE_CURVE ( 'NONE', #148, #153, #432, .T. ) ;
#455 = CARTESIAN_POINT ( 'NONE',  ( -21.23661284987759856, 1.183172719838318399, 81.68432631706218672 ) ) ;
#456 = DIRECTION ( 'NONE',  ( 3.351228413831880129E-15, 7.226086267324990542E-15, 1.000000000000000000 ) ) ;
#457 = VERTEX_POINT ( 'NONE', #484 ) ;
#458 = ADVANCED_FACE ( 'NONE', ( #157 ), #577, .F. ) ;
#459 = DIRECTION ( 'NONE',  ( 2.498001805406600244E-16, 1.000000000000000000, 0.000000000000000000 ) ) ;
#460 = CARTESIAN_POINT ( 'NONE',  ( -20.98638495815577087, 2.071474406097897347, 73.61857974151450890 ) ) ;
#461 = AXIS2_PLACEMENT_3D ( 'NONE', #15, #385, #527 ) ;
#462 = CARTESIAN_POINT ( 'NONE',  ( -20.66682871963190138, 3.024498919493415539, 87.58127198644831424 ) ) ;
#463 = ADVANCED_FACE ( 'NONE', ( #528 ), #295, .F. ) ;
#464 = VERTEX_POINT ( 'NONE', #75 ) ;
#465 = CARTESIAN_POINT ( 'NONE',  ( -20.93217904918765271, 2.241697027900192651, 86.44184647225353046 ) ) ;
#466 = CARTESIAN_POINT ( 'NONE',  ( -21.54810669696083281, -0.6232725244706193157, 68.48634811751094276 ) ) ;
#467 = VECTOR ( 'NONE', #138, 1000.000000000000000 ) ;
#468 = CARTESIAN_POINT ( 'NONE',  ( -20.89981582223121492, 2.341245743587297756, 86.32521486249345344 ) ) ;
#469 = EDGE_CURVE ( 'NONE', #296, #508, #71, .T. ) ;
#470 = ADVANCED_FACE ( 'NONE', ( #64 ), #239, .T. ) ;
#471 = CARTESIAN_POINT ( 'NONE',  ( -21.15097087530839204, 1.510845094034823033, 87.04041240206528585 ) ) ;
#472 = ORIENTED_EDGE ( 'NONE', *, *, #227, .F. ) ;
#473 = FILL_AREA_STYLE ('',( #275 ) ) ;
#474 = ORIENTED_EDGE ( 'NONE', *, *, #166, .F. ) ;
#475 = DIRECTION ( 'NONE',  ( 1.675614206915964914E-15, -6.178827388002610438E-15, 1.000000000000000000 ) ) ;
#476 = CARTESIAN_POINT ( 'NONE',  ( -20.74859280944799522, 2.789857421734470933, 70.34380614869576220 ) ) ;
#477 = LINE ( 'NONE', #340, #54 ) ;
#478 = VERTEX_POINT ( 'NONE', #33 ) ;
#479 = CARTESIAN_POINT ( 'NONE',  ( -20.68231073028519518, 2.980383187821873836, 71.80508732282103779 ) ) ;
#480 = DIRECTION ( 'NONE',  ( -2.498001805406600244E-16, -1.000000000000000000, 7.308926516630639104E-17 ) ) ;
#481 = DIRECTION ( 'NONE',  ( -1.000000000000000000, 2.498001805406600244E-16, 2.484124017598790126E-15 ) ) ;
#482 = CARTESIAN_POINT ( 'NONE',  ( -20.94902795775314885, 2.189381300789263740, 69.39636083125284927 ) ) ;
#483 = LINE ( 'NONE', #200, #300 ) ;
#484 = CARTESIAN_POINT ( 'NONE',  ( -24.93015381042025780, 1.000005412376864689, 74.27640645766418004 ) ) ;
#485 = ORIENTED_EDGE ( 'NONE', *, *, #358, .F. ) ;
#486 = VECTOR ( 'NONE', #337, 1000.000000000000000 ) ;
#487 = CARTESIAN_POINT ( 'NONE',  ( -20.75141107212642666, 2.781690754549339228, 72.57264740984923890 ) ) ;
#488 =( NAMED_UNIT ( * ) SI_UNIT ( $, .STERADIAN. ) SOLID_ANGLE_UNIT ( ) );
#489 = EDGE_CURVE ( 'NONE', #464, #153, #19, .T. ) ;
#490 = LINE ( 'NONE', #77, #156 ) ;
#491 = CARTESIAN_POINT ( 'NONE',  ( -21.21828498690201315, 1.252203647365959238, 68.72137810200386809 ) ) ;
#492 = CARTESIAN_POINT ( 'NONE',  ( -21.58500368810927128, -0.9999985876231372028, 87.58127198644831424 ) ) ;
#493 = CARTESIAN_POINT ( 'NONE',  ( -20.87262734198244374, 2.423660744972303327, 73.21665987143244081 ) ) ;
#494 = EDGE_LOOP ( 'NONE', ( #72, #407, #472, #376 ) ) ;
#495 = CARTESIAN_POINT ( 'NONE',  ( -20.78713686053329823, 2.677584153736831674, 83.09476456657226606 ) ) ;
#496 = AXIS2_PLACEMENT_3D ( 'NONE', #360, #223, #459 ) ;
#497 = DIRECTION ( 'NONE',  ( 0.000000000000000000, -1.000000000000000000, 0.000000000000000000 ) ) ;
#498 = EDGE_LOOP ( 'NONE', ( #283, #39, #426, #151 ) ) ;
#499 = CARTESIAN_POINT ( 'NONE',  ( -20.72546742013775400, 2.856740275937641904, 83.50962441719914864 ) ) ;
#500 = APPLICATION_CONTEXT ( 'automotive_design' ) ;
#501 = CARTESIAN_POINT ( 'NONE',  ( -20.79389696424828671, 2.657849791107776305, 72.84271499662783356 ) ) ;
#502 = EDGE_CURVE ( 'NONE', #587, #202, #483, .T. ) ;
#503 = ORIENTED_EDGE ( 'NONE', *, *, #3, .T. ) ;
#504 = CARTESIAN_POINT ( 'NONE',  ( -21.52596669874007063, -0.4382495083614357245, 87.58127198644831424 ) ) ;
#505 = LINE ( 'NONE', #361, #130 ) ;
#506 = CARTESIAN_POINT ( 'NONE',  ( -20.65494272185178204, 3.058156330143159796, 68.33267462266488224 ) ) ;
#507 = EDGE_CURVE ( 'NONE', #478, #216, #447, .T. ) ;
#508 = VERTEX_POINT ( 'NONE', #424 ) ;
#509 = FACE_OUTER_BOUND ( 'NONE', #103, .T. ) ;
#510 = ORIENTED_EDGE ( 'NONE', *, *, #370, .F. ) ;
#511 = CARTESIAN_POINT ( 'NONE',  ( -20.71681267528888171, 2.881568215268808242, 85.28563264973745106 ) ) ;
#512 = PRESENTATION_LAYER_ASSIGNMENT (  '', '', ( #364 ) ) ;
#513 = VECTOR ( 'NONE', #436, 1000.000000000000000 ) ;
#514 = LINE ( 'NONE', #428, #513 ) ;
#515 = LINE ( 'NONE', #18, #247 ) ;
#516 = LINE ( 'NONE', #126, #324 ) ;
#517 = B_SPLINE_CURVE_WITH_KNOTS ( 'NONE', 3,
 ( #276, #466, #60, #207, #78, #167, #431, #351, #163, #530, #491, #290, #534, #21, #298, #526, #294, #118, #482, #245, #249, #525, #434, #289, #248, #293, #37, #32, #573, #476, #575, #443, #212, #199, #396, #165, #479, #25, #162, #390, #159, #297, #532, #579, #487, #252, #350, #501, #412, #310, #585, #409, #493, #405, #172, #82, #450, #460, #218, #589, #355, #365, #49, #453 ),
 .UNSPECIFIED., .F., .F.,
 ( 4, 2, 2, 2, 2, 2, 2, 2, 2, 2, 2, 2, 2, 2, 2, 2, 2, 2, 2, 2, 2, 2, 2, 2, 2, 2, 2, 2, 2, 2, 2, 4 ),
 ( 0.000000000000000000, 0.1250000000000028866, 0.1875000000000044409, 0.2187500000000052180, 0.2343750000000047740, 0.2500000000000043299, 0.3125000000000082157, 0.3437500000000101585, 0.3593750000000097145, 0.3750000000000092149, 0.4062500000000084932, 0.4218750000000081046, 0.4375000000000077716, 0.4687500000000070499, 0.4843750000000086597, 0.5000000000000103251, 0.5625000000000046629, 0.6249999999999990008, 0.6562499999999961142, 0.6718749999999968914, 0.6874999999999975575, 0.7187499999999946709, 0.7343749999999933387, 0.7499999999999918954, 0.7812499999999888978, 0.7968749999999894529, 0.8124999999999898970, 0.8437499999999906741, 0.8593749999999912292, 0.8749999999999916733, 0.9374999999999958922, 1.000000000000000000 ),
 .UNSPECIFIED. ) ;
#518 = DIRECTION ( 'NONE',  ( 2.511029090215005092E-15, 1.096338977494589887E-16, 1.000000000000000000 ) ) ;
#519 = DIRECTION ( 'NONE',  ( -1.000000000000000000, 2.498001805406600244E-16, 2.484124017598790126E-15 ) ) ;
#520 = DIRECTION ( 'NONE',  ( 2.312960008715725786E-15, 0.000000000000000000, 1.000000000000000000 ) ) ;
#521 = COLOUR_RGB ( '',0.7921568627450980005, 0.8196078431372548767, 0.9333333333333333481 ) ;
#522 = PLANE ( 'NONE',  #382 ) ;
#523 = EDGE_CURVE ( 'NONE', #202, #135, #243, .T. ) ;
#524 = VERTEX_POINT ( 'NONE', #70 ) ;
#525 = CARTESIAN_POINT ( 'NONE',  ( -20.86759501639706826, 2.438828033599555578, 69.70018257339734191 ) ) ;
#526 = CARTESIAN_POINT ( 'NONE',  ( -20.99188182004026615, 2.053908195758090471, 69.26070888444870377 ) ) ;
#527 = DIRECTION ( 'NONE',  ( 0.000000000000000000, -1.000000000000000000, 0.000000000000000000 ) ) ;
#528 = FACE_OUTER_BOUND ( 'NONE', #284, .T. ) ;
#529 = ORIENTED_EDGE ( 'NONE', *, *, #507, .F. ) ;
#530 = CARTESIAN_POINT ( 'NONE',  ( -21.22957108206987087, 1.206495591921150412, 68.70082316247302856 ) ) ;
#531 = CARTESIAN_POINT ( 'NONE',  ( -27.93015981042025686, 3.412376868865054508E-06, 71.44797367606375360 ) ) ;
#532 = CARTESIAN_POINT ( 'NONE',  ( -20.72743646569808362, 2.851022519471468453, 72.38698068196845270 ) ) ;
#533 = EDGE_CURVE ( 'NONE', #563, #457, #246, .T. ) ;
#534 = CARTESIAN_POINT ( 'NONE',  ( -21.11783942384417401, 1.633739208663602449, 68.92412326805708744 ) ) ;
#535 = APPLICATION_PROTOCOL_DEFINITION ( 'draft international standard', 'automotive_design', 1998, #500 ) ;
#536 = AXIS2_PLACEMENT_3D ( 'NONE', #586, #356, #219 ) ;
#537 = DIRECTION ( 'NONE',  ( 2.498001805406600244E-16, 1.000000000000000000, -1.096338977494595804E-16 ) ) ;
#538 = AXIS2_PLACEMENT_3D ( 'NONE', #34, #209, #567 ) ;
#539 = DIRECTION ( 'NONE',  ( -1.000000000000000000, 2.498001805406600244E-16, 2.081664007844154824E-15 ) ) ;
#540 = PRODUCT_DEFINITION_SHAPE ( 'NONE', 'NONE',  #36 ) ;
#541 = ORIENTED_EDGE ( 'NONE', *, *, #327, .F. ) ;
#542 = CARTESIAN_POINT ( 'NONE',  ( -21.52596669874007063, -0.4382495083614357245, 68.33267462266488224 ) ) ;
#543 = CARTESIAN_POINT ( 'NONE',  ( -27.93015981042025686, -11.77508144530790624, 79.56986339819425780 ) ) ;
#544 = ORIENTED_EDGE ( 'NONE', *, *, #303, .F. ) ;
#545 = CARTESIAN_POINT ( 'NONE',  ( -21.08369174176762684, 1.759517606721406002, 87.58127198644831424 ) ) ;
#546 = DIRECTION ( 'NONE',  ( 0.000000000000000000, -1.000000000000000000, 7.308926516630639104E-17 ) ) ;
#547 = ORIENTED_EDGE ( 'NONE', *, *, #286, .F. ) ;
#548 = CARTESIAN_POINT ( 'NONE',  ( -20.78364864019683367, 2.687795037834341816, 83.11516043826850364 ) ) ;
#549 = VECTOR ( 'NONE', #475, 1000.000000000000000 ) ;
#550 = CARTESIAN_POINT ( 'NONE',  ( -27.93015981042025686, 3.412376868865054508E-06, 71.44797367606375360 ) ) ;
#551 = CARTESIAN_POINT ( 'NONE',  ( -21.00627148317257209, 2.012854563098778637, 68.33267462266488224 ) ) ;
#552 = CARTESIAN_POINT ( 'NONE',  ( -27.93015981042025686, -0.9999985876231372028, 76.27641045766418415 ) ) ;
#553 = LINE ( 'NONE', #258, #110 ) ;
#554 =( LENGTH_UNIT ( ) NAMED_UNIT ( * ) SI_UNIT ( .MILLI., .METRE. ) );
#555 = DIRECTION ( 'NONE',  ( 1.000000000000000000, -2.498001805406600244E-16, 0.000000000000000000 ) ) ;
#556 = CARTESIAN_POINT ( 'NONE',  ( -21.11666163143220487, 1.635525103020059712, 86.96510560530924749 ) ) ;
#557 = LINE ( 'NONE', #142, #185 ) ;
#558 = SURFACE_STYLE_USAGE ( .BOTH. , #413 ) ;
#559 = EDGE_CURVE ( 'NONE', #394, #478, #208, .T. ) ;
#560 = ORIENTED_EDGE ( 'NONE', *, *, #502, .T. ) ;
#561 = CARTESIAN_POINT ( 'NONE',  ( 64.49662848148149408, 1.000005412376848035, 74.27640645766399530 ) ) ;
#562 = EDGE_CURVE ( 'NONE', #287, #563, #516, .T. ) ;
#563 = VERTEX_POINT ( 'NONE', #304 ) ;
#564 = CIRCLE ( 'NONE', #590, 3.000005999999999950 ) ;
#565 = CARTESIAN_POINT ( 'NONE',  ( -20.75860688661994047, 2.760978203066132952, 85.63753561455844476 ) ) ;
#566 = ORIENTED_EDGE ( 'NONE', *, *, #559, .F. ) ;
#567 = DIRECTION ( 'NONE',  ( 2.312960008715725786E-15, 0.000000000000000000, 1.000000000000000000 ) ) ;
#568 = ORIENTED_EDGE ( 'NONE', *, *, #358, .T. ) ;
#569 = ADVANCED_FACE ( 'NONE', ( #451 ), #259, .T. ) ;
#570 = CARTESIAN_POINT ( 'NONE',  ( -27.93015981042025686, 1.000005412376864689, 74.27640645766418004 ) ) ;
#571 = AXIS2_PLACEMENT_3D ( 'NONE', #299, #481, #391 ) ;
#572 = DIRECTION ( 'NONE',  ( 1.000000000000000000, 0.000000000000000000, -2.484124017598790126E-15 ) ) ;
#573 = CARTESIAN_POINT ( 'NONE',  ( -20.76146995734575285, 2.752485672091491864, 70.25364417685811702 ) ) ;
#574 = LINE ( 'NONE', #69, #7 ) ;
#575 = CARTESIAN_POINT ( 'NONE',  ( -20.74271636736466107, 2.806866610451600241, 70.38774844942903997 ) ) ;
#576 =( NAMED_UNIT ( * ) PLANE_ANGLE_UNIT ( ) SI_UNIT ( $, .RADIAN. ) );
#577 = PLANE ( 'NONE',  #120 ) ;
#578 = APPLICATION_CONTEXT ( 'automotive_design' ) ;
#579 = CARTESIAN_POINT ( 'NONE',  ( -20.74511393833334338, 2.799928792218584039, 72.52644360350298314 ) ) ;
#580 = VECTOR ( 'NONE', #73, 1000.000000000000000 ) ;
#581 = CIRCLE ( 'NONE', #538, 3.000005999999999506 ) ;
#582 = CARTESIAN_POINT ( 'NONE',  ( -20.84874322310213302, 2.499387114271314658, 87.58127198644831424 ) ) ;
#583 = DIRECTION ( 'NONE',  ( -1.000000000000000000, 2.498001805406600244E-16, 2.484124017598790126E-15 ) ) ;
#584 = ORIENTED_EDGE ( 'NONE', *, *, #90, .T. ) ;
#585 = CARTESIAN_POINT ( 'NONE',  ( -20.84432536703765493, 2.508580426167660526, 73.09408622220141183 ) ) ;
#586 = CARTESIAN_POINT ( 'NONE',  ( 64.49662848148149408, 3.412376846649751994E-06, 84.44799967606351743 ) ) ;
#587 = VERTEX_POINT ( 'NONE', #46 ) ;
#588 = CARTESIAN_POINT ( 'NONE',  ( -21.03241593526033171, 1.922278922305402871, 82.14415613837127239 ) ) ;
#589 = CARTESIAN_POINT ( 'NONE',  ( -21.05337270509432201, 1.854828127169479757, 73.81372228735605745 ) ) ;
#590 = AXIS2_PLACEMENT_3D ( 'NONE', #89, #264, #497 ) ;
#591 = CARTESIAN_POINT ( 'NONE',  ( -21.44726666102666002, 0.1278642715888694548, 68.33267462266488224 ) ) ;
#592 = DIRECTION ( 'NONE',  ( 2.312960008715725786E-15, 0.000000000000000000, 1.000000000000000000 ) ) ;
ENDSEC;
END-ISO-10303-21;
