ISO-10303-21;
HEADER;
FILE_DESCRIPTION (( 'STEP AP214' ),
    '1' );
FILE_NAME ('Wrist Hinge 1 RH60.STEP',
    '2025-04-24T00:54:43',
    ( '' ),
    ( '' ),
    'SwSTEP 2.0',
    'SolidWorks 2023',
    '' );
FILE_SCHEMA (( 'AUTOMOTIVE_DESIGN' ));
ENDSEC;

DATA;
#1 = PLANE ( 'NONE',  #88 ) ;
#2 = ORIENTED_EDGE ( 'NONE', *, *, #643, .T. ) ;
#3 = EDGE_CURVE ( 'NONE', #350, #230, #555, .T. ) ;
#4 = LINE ( 'NONE', #85, #159 ) ;
#5 = EDGE_LOOP ( 'NONE', ( #134, #318, #391, #236, #592, #626, #515, #297, #619, #402, #459, #186 ) ) ;
#6 = B_SPLINE_SURFACE_WITH_KNOTS ( 'NONE', 3, 1, ( 
 ( #245, #181 ),
 ( #393, #148 ),
 ( #508, #512 ),
 ( #400, #302 ) ),
 .UNSPECIFIED., .F., .F., .F.,
 ( 4, 4 ),
 ( 2, 2 ),
 ( 0.000000000000000000, 0.0003678039482246859876 ),
 ( 0.000000000000000000, 1.000000000000000000 ),
 .UNSPECIFIED. ) ;
#7 = CIRCLE ( 'NONE', #277, 3.000005999999999506 ) ;
#8 = DIRECTION ( 'NONE',  ( 2.498001805406600244E-16, 1.000000000000000000, -7.308926516630639104E-17 ) ) ;
#9 = ORIENTED_EDGE ( 'NONE', *, *, #647, .F. ) ;
#10 = LINE ( 'NONE', #627, #100 ) ;
#11 = EDGE_CURVE ( 'NONE', #526, #407, #190, .T. ) ;
#12 = ORIENTED_EDGE ( 'NONE', *, *, #629, .F. ) ;
#13 = CARTESIAN_POINT ( 'NONE',  ( 23.00073487128510763, -1.000002247580006776, 85.62823421782654520 ) ) ;
#14 = ORIENTED_EDGE ( 'NONE', *, *, #605, .F. ) ;
#15 = CARTESIAN_POINT ( 'NONE',  ( 22.52075638152015813, -1.000002247580006776, 84.75329346454847723 ) ) ;
#16 = AXIS2_PLACEMENT_3D ( 'NONE', #18, #517, #631 ) ;
#17 = EDGE_LOOP ( 'NONE', ( #510, #532, #559, #565 ) ) ;
#18 = CARTESIAN_POINT ( 'NONE',  ( 23.76695922734544908, -5.087461584443249585, 86.83230989418449042 ) ) ;
#19 = VERTEX_POINT ( 'NONE', #110 ) ;
#20 = DIRECTION ( 'NONE',  ( 1.000000000000000000, -2.498001805406600244E-16, -2.484124017598790126E-15 ) ) ;
#21 = EDGE_CURVE ( 'NONE', #465, #86, #156, .T. ) ;
#22 = CARTESIAN_POINT ( 'NONE',  ( 23.67364299670663286, 1.995962805678396013, 86.69046625490589975 ) ) ;
#23 = LINE ( 'NONE', #173, #487 ) ;
#24 =( NAMED_UNIT ( * ) SI_UNIT ( $, .STERADIAN. ) SOLID_ANGLE_UNIT ( ) );
#25 = CARTESIAN_POINT ( 'NONE',  ( 23.76695922734544908, -1.000002247580006776, 86.83230989418449042 ) ) ;
#26 = CARTESIAN_POINT ( 'NONE',  ( 22.19146047049900616, 1.970909270741223462, 82.18382064925023656 ) ) ;
#27 = EDGE_CURVE ( 'NONE', #19, #250, #367, .T. ) ;
#28 = CARTESIAN_POINT ( 'NONE',  ( 22.30943901154296682, 3.024005800419995893, 84.29018817050241807 ) ) ;
#29 = ORIENTED_EDGE ( 'NONE', *, *, #177, .T. ) ;
#30 = DIRECTION ( 'NONE',  ( 0.000000000000000000, -1.000000000000000000, 0.000000000000000000 ) ) ;
#31 = DIRECTION ( 'NONE',  ( 0.9984350970945186088, -2.538181685329821315E-16, -0.05592277612797189046 ) ) ;
#32 = ORIENTED_EDGE ( 'NONE', *, *, #625, .F. ) ;
#33 = CARTESIAN_POINT ( 'NONE',  ( 23.52931511036943846, 2.225857323477314686, 86.46968864625881679 ) ) ;
#34 = CIRCLE ( 'NONE', #191, 3.000005999999999950 ) ;
#35 = AXIS2_PLACEMENT_3D ( 'NONE', #103, #308, #415 ) ;
#36 = EDGE_CURVE ( 'NONE', #492, #244, #259, .T. ) ;
#37 = FACE_OUTER_BOUND ( 'NONE', #79, .T. ) ;
#38 = ORIENTED_EDGE ( 'NONE', *, *, #616, .T. ) ;
#39 = DIRECTION ( 'NONE',  ( 1.000000000000000000, -2.220446049250315053E-16, -2.484124017598785393E-15 ) ) ;
#40 = ORIENTED_EDGE ( 'NONE', *, *, #364, .F. ) ;
#41 = CARTESIAN_POINT ( 'NONE',  ( 24.93017699136400012, 1.000001752419993561, 79.61950054055324699 ) ) ;
#42 = CARTESIAN_POINT ( 'NONE',  ( 23.10979370431148183, 2.676336636895655818, 85.80745287917153519 ) ) ;
#43 = DIRECTION ( 'NONE',  ( 1.000000000000000000, -2.498001805406600244E-16, 0.000000000000000000 ) ) ;
#44 = VERTEX_POINT ( 'NONE', #463 ) ;
#45 = DIRECTION ( 'NONE',  ( -1.675614206915919949E-15, 2.827598974170610402E-15, -1.000000000000000000 ) ) ;
#46 = CARTESIAN_POINT ( 'NONE',  ( 24.93017699136402854, -1.000002247580006776, 87.27637010375423188 ) ) ;
#47 = ORIENTED_EDGE ( 'NONE', *, *, #27, .F. ) ;
#48 = ADVANCED_FACE ( 'NONE', ( #375 ), #467, .F. ) ;
#49 = CARTESIAN_POINT ( 'NONE',  ( 24.93017699136400012, 1.000001752419993561, 81.61950454055326531 ) ) ;
#50 = B_SPLINE_CURVE_WITH_KNOTS ( 'NONE', 3,
 ( #25, #377, #224, #533 ),
 .UNSPECIFIED., .F., .F.,
 ( 4, 4 ),
 ( 0.000000000000000000, 0.0003678039482246860418 ),
 .UNSPECIFIED. ) ;
#51 = B_SPLINE_SURFACE_WITH_KNOTS ( 'NONE', 3, 1, ( 
 ( #104, #309 ),
 ( #466, #516 ),
 ( #578, #366 ),
 ( #205, #53 ),
 ( #472, #60 ),
 ( #316, #265 ),
 ( #215, #63 ),
 ( #411, #479 ),
 ( #116, #408 ),
 ( #620, #421 ),
 ( #155, #362 ),
 ( #416, #570 ),
 ( #260, #211 ),
 ( #319, #157 ) ),
 .UNSPECIFIED., .F., .F., .F.,
 ( 4, 1, 1, 1, 1, 1, 1, 1, 1, 1, 1, 4 ),
 ( 2, 2 ),
 ( 0.000000000000000000, 0.05416097960392660116, 0.1253836639953896104, 0.2497964173435699986, 0.3745756927470720310, 0.4999675944255070337, 0.6227399468854810660, 0.7493506730562040641, 0.8130979733425000022, 0.8760272141741610730, 0.9382794283787059264, 1.000000000000000000 ),
 ( 0.000000000000000000, 1.000000000000000000 ),
 .UNSPECIFIED. ) ;
#52 = ORIENTED_EDGE ( 'NONE', *, *, #544, .F. ) ;
#53 = CARTESIAN_POINT ( 'NONE',  ( 23.45595629290198048, 3.024005800419995893, 86.35620529454398309 ) ) ;
#54 = CARTESIAN_POINT ( 'NONE',  ( 22.44686566937248529, -1.000002247580006776, 84.60118940371360452 ) ) ;
#55 = PRODUCT ( 'Wrist Hinge 1 RH60', 'Wrist Hinge 1 RH60', '', ( #286 ) ) ;
#56 = FACE_OUTER_BOUND ( 'NONE', #361, .T. ) ;
#57 = VECTOR ( 'NONE', #20, 1000.000000000000000 ) ;
#58 = LINE ( 'NONE', #209, #257 ) ;
#59 = VERTEX_POINT ( 'NONE', #219 ) ;
#60 = CARTESIAN_POINT ( 'NONE',  ( 23.32376538824467360, 3.024005800419995893, 86.15049573296836627 ) ) ;
#61 = EDGE_CURVE ( 'NONE', #373, #19, #425, .T. ) ;
#62 = CARTESIAN_POINT ( 'NONE',  ( 23.62245578371882360, -1.000002247580006776, 86.61221602725214552 ) ) ;
#63 = CARTESIAN_POINT ( 'NONE',  ( 23.00073487128510763, 3.024005800419995893, 85.62823421782654520 ) ) ;
#64 = CARTESIAN_POINT ( 'NONE',  ( 23.76695922734544908, -1.000002247580006776, 86.83230989418449042 ) ) ;
#65 = ORIENTED_EDGE ( 'NONE', *, *, #462, .F. ) ;
#66 = CARTESIAN_POINT ( 'NONE',  ( 24.28690812959614931, -0.02425012085749326390, 87.62135057653561887 ) ) ;
#67 = STYLED_ITEM ( 'NONE', ( #441 ), #194 ) ;
#68 = ORIENTED_EDGE ( 'NONE', *, *, #11, .T. ) ;
#69 = CARTESIAN_POINT ( 'NONE',  ( 22.37717575049257235, -1.000002247580006776, 84.44793732215518389 ) ) ;
#70 = LINE ( 'NONE', #644, #399 ) ;
#71 = CARTESIAN_POINT ( 'NONE',  ( 24.93017699136400012, -1.000002247580006776, 68.61947854055331675 ) ) ;
#72 = CARTESIAN_POINT ( 'NONE',  ( 23.62245578371875965, 2.077482288253722054, 86.61221602725214552 ) ) ;
#73 = CARTESIAN_POINT ( 'NONE',  ( 22.37717575049257235, 3.000005752419996341, 84.44793732215518389 ) ) ;
#74 = EDGE_CURVE ( 'NONE', #98, #341, #422, .T. ) ;
#75 = CARTESIAN_POINT ( 'NONE',  ( 22.26604037798500002, 2.851653970167828511, 83.51535678403853069 ) ) ;
#76 = CARTESIAN_POINT ( 'NONE',  ( 64.49649628825488890, 1.000001752419978018, 74.27634410375409857 ) ) ;
#77 = CARTESIAN_POINT ( 'NONE',  ( 23.76695922734544908, 1.820659917795099059, 86.83230989418449042 ) ) ;
#78 = PRODUCT_DEFINITION ( 'UNKNOWN', '', #303, #353 ) ;
#79 = EDGE_LOOP ( 'NONE', ( #82, #337, #247, #569 ) ) ;
#80 = CARTESIAN_POINT ( 'NONE',  ( 64.49649628825488890, -2.475800234421308976E-07, 84.44793732215367754 ) ) ;
#81 = PLANE ( 'NONE',  #152 ) ;
#82 = ORIENTED_EDGE ( 'NONE', *, *, #647, .T. ) ;
#83 = CARTESIAN_POINT ( 'NONE',  ( -5.450614144822395912E-05, -1.000002247580006776, -0.0001522217187174823572 ) ) ;
#84 = EDGE_CURVE ( 'NONE', #492, #59, #34, .T. ) ;
#85 = CARTESIAN_POINT ( 'NONE',  ( 24.93017699136400012, 1.000001752419993561, 74.27634410375422647 ) ) ;
#86 = VERTEX_POINT ( 'NONE', #158 ) ;
#87 = LINE ( 'NONE', #292, #659 ) ;
#88 = AXIS2_PLACEMENT_3D ( 'NONE', #602, #140, #195 ) ;
#89 = CARTESIAN_POINT ( 'NONE',  ( 64.49649628825488890, -1.000002247580018766, 68.61947854055325990 ) ) ;
#90 = VERTEX_POINT ( 'NONE', #624 ) ;
#91 = DIRECTION ( 'NONE',  ( -1.000000000000000000, 2.168404344970995063E-16, 0.000000000000000000 ) ) ;
#92 = ORIENTED_EDGE ( 'NONE', *, *, #213, .T. ) ;
#93 = FACE_OUTER_BOUND ( 'NONE', #269, .T. ) ;
#94 = DIRECTION ( 'NONE',  ( 0.000000000000000000, 1.000000000000000000, 0.000000000000000000 ) ) ;
#95 = LINE ( 'NONE', #450, #511 ) ;
#96 = EDGE_CURVE ( 'NONE', #530, #423, #314, .T. ) ;
#97 = B_SPLINE_CURVE_WITH_KNOTS ( 'NONE', 3,
 ( #69, #270, #328, #221 ),
 .UNSPECIFIED., .F., .F.,
 ( 4, 4 ),
 ( 0.000000000000000000, 0.06276866408048199786 ),
 .UNSPECIFIED. ) ;
#98 = VERTEX_POINT ( 'NONE', #576 ) ;
#99 = CARTESIAN_POINT ( 'NONE',  ( 22.56711970168501225, 2.979980456808719591, 84.84939612841391465 ) ) ;
#100 = VECTOR ( 'NONE', #412, 1000.000000000000000 ) ;
#101 = CARTESIAN_POINT ( 'NONE',  ( 24.05957863679217823, -1.000002247580006776, 87.27637010375423188 ) ) ;
#102 = EDGE_LOOP ( 'NONE', ( #471, #523, #600, #443 ) ) ;
#103 = CARTESIAN_POINT ( 'NONE',  ( 27.93018299136399918, -9.000018247579996356, 79.61950054055324699 ) ) ;
#104 = CARTESIAN_POINT ( 'NONE',  ( 23.62245578371882360, -1.000002247580006776, 86.61221602725214552 ) ) ;
#105 = CARTESIAN_POINT ( 'NONE',  ( 23.16322743655758742, -1.000002247580006776, 85.89526910295285234 ) ) ;
#106 = ADVANCED_FACE ( 'NONE', ( #217 ), #114, .T. ) ;
#107 = ORIENTED_EDGE ( 'NONE', *, *, #550, .F. ) ;
#108 = CARTESIAN_POINT ( 'NONE',  ( 22.83760210049407036, -1.000002247580006776, 85.34833765804521022 ) ) ;
#109 = AXIS2_PLACEMENT_3D ( 'NONE', #635, #168, #539 ) ;
#110 = CARTESIAN_POINT ( 'NONE',  ( 23.76695922734544908, -1.000002247580006776, 86.83230989418449042 ) ) ;
#111 = ORIENTED_EDGE ( 'NONE', *, *, #74, .F. ) ;
#112 = CARTESIAN_POINT ( 'NONE',  ( 24.93017699136400012, -9.000018247579996356, 79.61950054055324699 ) ) ;
#113 = EDGE_CURVE ( 'NONE', #218, #365, #256, .T. ) ;
#114 = CYLINDRICAL_SURFACE ( 'NONE', #476, 3.000005999999999950 ) ;
#115 = ORIENTED_EDGE ( 'NONE', *, *, #614, .T. ) ;
#116 = CARTESIAN_POINT ( 'NONE',  ( 22.70341422462081837, -1.000002247580006776, 85.10578954794461026 ) ) ;
#117 = DIRECTION ( 'NONE',  ( -0.5502391120973338934, 4.117080616597665175E-17, -0.8350071374056258211 ) ) ;
#118 = EDGE_CURVE ( 'NONE', #218, #253, #10, .T. ) ;
#119 = ORIENTED_EDGE ( 'NONE', *, *, #462, .T. ) ;
#120 = FACE_OUTER_BOUND ( 'NONE', #580, .T. ) ;
#121 = CARTESIAN_POINT ( 'NONE',  ( 22.28941998861035856, 2.961766718668070730, 83.93277210961811363 ) ) ;
#122 = AXIS2_PLACEMENT_3D ( 'NONE', #573, #543, #430 ) ;
#123 = DIRECTION ( 'NONE',  ( -2.484124017598785393E-15, -1.140052912139717980E-16, -1.000000000000000000 ) ) ;
#124 = CARTESIAN_POINT ( 'NONE',  ( 22.15985288428344901, 1.000001752419993561, 81.61950454055332216 ) ) ;
#125 = DIRECTION ( 'NONE',  ( -2.312960008715725786E-15, 0.000000000000000000, -1.000000000000000000 ) ) ;
#126 = EDGE_CURVE ( 'NONE', #373, #250, #167, .T. ) ;
#127 = CARTESIAN_POINT ( 'NONE',  ( 22.18349978670830325, 1.792012947630517550, 82.04169204541767613 ) ) ;
#128 = B_SPLINE_CURVE_WITH_KNOTS ( 'NONE', 3,
 ( #77, #538, #22, #72 ),
 .UNSPECIFIED., .F., .F.,
 ( 4, 4 ),
 ( 0.000000000000000000, 1.000000000000000000 ),
 .UNSPECIFIED. ) ;
#129 = ORIENTED_EDGE ( 'NONE', *, *, #456, .F. ) ;
#130 = AXIS2_PLACEMENT_3D ( 'NONE', #658, #139, #339 ) ;
#131 = CARTESIAN_POINT ( 'NONE',  ( 22.33212241888537264, 2.997277043006869146, 84.34366777839063900 ) ) ;
#132 = CARTESIAN_POINT ( 'NONE',  ( 23.62245578371882360, -1.000002247580006776, 86.61221602725214552 ) ) ;
#133 = EDGE_CURVE ( 'NONE', #359, #500, #58, .T. ) ;
#134 = ORIENTED_EDGE ( 'NONE', *, *, #11, .F. ) ;
#135 = DIRECTION ( 'NONE',  ( -3.351228413831949943E-15, -1.675614206915974972E-15, -1.000000000000000000 ) ) ;
#136 = FACE_OUTER_BOUND ( 'NONE', #5, .T. ) ;
#137 = ORIENTED_EDGE ( 'NONE', *, *, #96, .F. ) ;
#138 = EDGE_CURVE ( 'NONE', #250, #253, #128, .T. ) ;
#139 = DIRECTION ( 'NONE',  ( 0.000000000000000000, 0.000000000000000000, 1.000000000000000000 ) ) ;
#140 = DIRECTION ( 'NONE',  ( 1.000000000000000000, -2.220446049250315053E-16, -2.484124017598785393E-15 ) ) ;
#141 = ORIENTED_EDGE ( 'NONE', *, *, #629, .T. ) ;
#142 = VECTOR ( 'NONE', #163, 1000.000000000000227 ) ;
#143 = CARTESIAN_POINT ( 'NONE',  ( 27.93018299136403471, -2.475800135216810194E-07, 84.44793732215379123 ) ) ;
#144 = EDGE_LOOP ( 'NONE', ( #38, #575, #14, #289 ) ) ;
#145 = CARTESIAN_POINT ( 'NONE',  ( 24.93017699136402854, -2.475800129362118462E-07, 84.44793732215379123 ) ) ;
#146 = CARTESIAN_POINT ( 'NONE',  ( 22.37717575049257235, -1.000002247580006776, 84.44793732215518389 ) ) ;
#147 = ORIENTED_EDGE ( 'NONE', *, *, #170, .T. ) ;
#148 = CARTESIAN_POINT ( 'NONE',  ( 23.72136014233177193, 2.095947195468723212, 86.76311168451800881 ) ) ;
#149 = PLANE ( 'NONE',  #238 ) ;
#150 = ORIENTED_EDGE ( 'NONE', *, *, #544, .T. ) ;
#151 = FACE_OUTER_BOUND ( 'NONE', #17, .T. ) ;
#152 = AXIS2_PLACEMENT_3D ( 'NONE', #283, #31, #582 ) ;
#153 = ORIENTED_EDGE ( 'NONE', *, *, #485, .F. ) ;
#154 = EDGE_CURVE ( 'NONE', #661, #649, #564, .T. ) ;
#155 = CARTESIAN_POINT ( 'NONE',  ( 22.52075638152015813, -1.000002247580006776, 84.75329346454847723 ) ) ;
#156 = LINE ( 'NONE', #363, #646 ) ;
#157 = CARTESIAN_POINT ( 'NONE',  ( 22.37717575049257235, 3.024005800419995893, 84.44793732215518389 ) ) ;
#158 = CARTESIAN_POINT ( 'NONE',  ( 27.93018299136399918, 1.000001752419993561, 76.27634810375421637 ) ) ;
#159 = VECTOR ( 'NONE', #304, 1000.000000000000000 ) ;
#160 = DIRECTION ( 'NONE',  ( 2.498001805406600244E-16, 1.000000000000000000, -7.308926516630639104E-17 ) ) ;
#161 = ORIENTED_EDGE ( 'NONE', *, *, #113, .T. ) ;
#162 = EDGE_CURVE ( 'NONE', #468, #388, #535, .T. ) ;
#163 = DIRECTION ( 'NONE',  ( -0.05592277612797188352, -5.900536798978588041E-17, -0.9984350970945184978 ) ) ;
#164 = ORIENTED_EDGE ( 'NONE', *, *, #285, .T. ) ;
#165 = CARTESIAN_POINT ( 'NONE',  ( 22.33175877547645172, -1.000002247580006776, 84.34282617731500409 ) ) ;
#166 = DIRECTION ( 'NONE',  ( -1.000000000000000000, 2.498001805406600244E-16, 2.484124017598790126E-15 ) ) ;
#167 =( BOUNDED_CURVE ( )  B_SPLINE_CURVE ( 3, ( #621, #66, #268, #312 ),
 .UNSPECIFIED., .F., .T. ) 
 B_SPLINE_CURVE_WITH_KNOTS ( ( 4, 4 ),
 ( 5.943348397725459975, 6.935321369037160011 ),
 .UNSPECIFIED. ) 
 CURVE ( )  GEOMETRIC_REPRESENTATION_ITEM ( )  RATIONAL_B_SPLINE_CURVE ( ( 1.000000000000000000, 0.9196664465531190213, 0.9196664465531190213, 1.000000000000000000 ) ) 
 REPRESENTATION_ITEM ( '' )  );
#168 = DIRECTION ( 'NONE',  ( 1.000000000000000000, 0.000000000000000000, -2.484124017598790126E-15 ) ) ;
#169 = VECTOR ( 'NONE', #329, 1000.000000000000000 ) ;
#170 = EDGE_CURVE ( 'NONE', #244, #661, #70, .T. ) ;
#171 = LINE ( 'NONE', #484, #574 ) ;
#172 = FILL_AREA_STYLE ('',( #636 ) ) ;
#173 = CARTESIAN_POINT ( 'NONE',  ( 27.93018299136399918, -1.000002247580006776, 76.34690060567908176 ) ) ;
#174 = CARTESIAN_POINT ( 'NONE',  ( 22.18745332035021178, 1.883192270075636721, 82.11227771764163208 ) ) ;
#175 = ORIENTED_EDGE ( 'NONE', *, *, #126, .T. ) ;
#176 = FACE_OUTER_BOUND ( 'NONE', #144, .T. ) ;
#177 = EDGE_CURVE ( 'NONE', #530, #300, #442, .T. ) ;
#178 = LINE ( 'NONE', #226, #455 ) ;
#179 = ORIENTED_EDGE ( 'NONE', *, *, #27, .T. ) ;
#180 = VECTOR ( 'NONE', #498, 1000.000000000000000 ) ;
#181 = CARTESIAN_POINT ( 'NONE',  ( 23.76695922734544908, 2.095947195468723212, 86.83230989418449042 ) ) ;
#182 = CARTESIAN_POINT ( 'NONE',  ( 22.20139898146883439, 2.164949484479326003, 82.36126102063710164 ) ) ;
#183 = ORIENTED_EDGE ( 'NONE', *, *, #371, .T. ) ;
#184 = FACE_OUTER_BOUND ( 'NONE', #196, .T. ) ;
#185 = CARTESIAN_POINT ( 'NONE',  ( 64.49649628825488890, 1.000001752419975354, 74.49999677828127176 ) ) ;
#186 = ORIENTED_EDGE ( 'NONE', *, *, #456, .T. ) ;
#187 = CARTESIAN_POINT ( 'NONE',  ( 27.93018299136399918, -1.000002247580006776, 76.27634810375421637 ) ) ;
#188 = CARTESIAN_POINT ( 'NONE',  ( 23.62245578371875965, 2.077482288253722054, 86.61221602725214552 ) ) ;
#189 = DIRECTION ( 'NONE',  ( -1.000000000000000000, 2.498001805406600244E-16, 2.484124017598790126E-15 ) ) ;
#190 = LINE ( 'NONE', #608, #142 ) ;
#191 = AXIS2_PLACEMENT_3D ( 'NONE', #206, #368, #474 ) ;
#192 = DIRECTION ( 'NONE',  ( 1.000000000000000000, -2.220446049250315053E-16, -2.081664007844154824E-15 ) ) ;
#193 = VECTOR ( 'NONE', #272, 1000.000000000000227 ) ;
#194 = MANIFOLD_SOLID_BREP ( 'NONE', #216 ) ;
#195 = DIRECTION ( 'NONE',  ( -2.484124017598785393E-15, 0.000000000000000000, -1.000000000000000000 ) ) ;
#196 = EDGE_LOOP ( 'NONE', ( #153, #179, #503, #294 ) ) ;
#197 = EDGE_CURVE ( 'NONE', #230, #98, #178, .T. ) ;
#198 = FACE_OUTER_BOUND ( 'NONE', #447, .T. ) ;
#199 = ORIENTED_EDGE ( 'NONE', *, *, #113, .F. ) ;
#200 = FACE_OUTER_BOUND ( 'NONE', #507, .T. ) ;
#201 = EDGE_CURVE ( 'NONE', #388, #526, #387, .T. ) ;
#202 = EDGE_LOOP ( 'NONE', ( #280, #129, #562, #615 ) ) ;
#203 = VECTOR ( 'NONE', #657, 1000.000000000000000 ) ;
#204 = CIRCLE ( 'NONE', #585, 3.000005999999999950 ) ;
#205 = CARTESIAN_POINT ( 'NONE',  ( 23.45595629290198048, -1.000002247580006776, 86.35620529454398309 ) ) ;
#206 = CARTESIAN_POINT ( 'NONE',  ( 31.18018949136400053, -2.475800126434772597E-07, 71.44791132215380003 ) ) ;
#207 = EDGE_LOOP ( 'NONE', ( #354, #175, #47 ) ) ;
#208 = PRODUCT_DEFINITION_SHAPE ( 'NONE', 'NONE',  #78 ) ;
#209 = CARTESIAN_POINT ( 'NONE',  ( 22.30943901529573026, 1.012001776419994892, 84.29018817935269681 ) ) ;
#210 = ORIENTED_EDGE ( 'NONE', *, *, #605, .T. ) ;
#211 = CARTESIAN_POINT ( 'NONE',  ( 22.40033921572710796, 3.024005800419995893, 84.49887509508350547 ) ) ;
#212 = CARTESIAN_POINT ( 'NONE',  ( 22.37717575049257235, -1.000002247580006776, 84.44793732215518389 ) ) ;
#213 = EDGE_CURVE ( 'NONE', #359, #526, #433, .T. ) ;
#214 = ORIENTED_EDGE ( 'NONE', *, *, #21, .T. ) ;
#215 = CARTESIAN_POINT ( 'NONE',  ( 23.00073487128510763, -1.000002247580006776, 85.62823421782654520 ) ) ;
#216 = CLOSED_SHELL ( 'NONE', ( #493, #356, #440, #251, #436, #48, #652, #390, #556, #596, #281, #313, #106, #609, #321, #262, #475, #222 ) ) ;
#217 = FACE_OUTER_BOUND ( 'NONE', #241, .T. ) ;
#218 = VERTEX_POINT ( 'NONE', #132 ) ;
#219 = CARTESIAN_POINT ( 'NONE',  ( 31.18018949136402895, -1.000002247580006776, 68.61947854055331675 ) ) ;
#220 = PLANE ( 'NONE',  #534 ) ;
#221 = CARTESIAN_POINT ( 'NONE',  ( 22.30943901472956981, -1.000002247580006776, 84.29018816924457269 ) ) ;
#222 = ADVANCED_FACE ( 'NONE', ( #547 ), #81, .F. ) ;
#223 = CARTESIAN_POINT ( 'NONE',  ( 22.16527669161652625, 1.273894393483764986, 81.71634021245998269 ) ) ;
#224 = CARTESIAN_POINT ( 'NONE',  ( 23.67312419120191080, -1.000002247580006776, 86.68967315353384606 ) ) ;
#225 = VECTOR ( 'NONE', #166, 1000.000000000000000 ) ;
#226 = CARTESIAN_POINT ( 'NONE',  ( -5.450614144822395912E-05, -1.000002247580006776, 79.61950054055324699 ) ) ;
#227 = VECTOR ( 'NONE', #586, 1000.000000000000000 ) ;
#228 = CARTESIAN_POINT ( 'NONE',  ( 22.35446726298448539, 3.024005800419995893, 84.39538174973505136 ) ) ;
#229 = CARTESIAN_POINT ( 'NONE',  ( 22.30141460999850267, 2.988388503917279504, 84.14692190330644905 ) ) ;
#230 = VERTEX_POINT ( 'NONE', #427 ) ;
#231 = DIRECTION ( 'NONE',  ( 0.000000000000000000, -1.000000000000000000, 0.000000000000000000 ) ) ;
#232 = ORIENTED_EDGE ( 'NONE', *, *, #583, .F. ) ;
#233 =( LENGTH_UNIT ( ) NAMED_UNIT ( * ) SI_UNIT ( .MILLI., .METRE. ) );
#234 = EDGE_CURVE ( 'NONE', #59, #44, #243, .T. ) ;
#235 = SURFACE_STYLE_FILL_AREA ( #172 ) ;
#236 = ORIENTED_EDGE ( 'NONE', *, *, #301, .F. ) ;
#237 = DIRECTION ( 'NONE',  ( 1.000000000000000000, -2.498001805406610105E-16, -8.032061487971200750E-15 ) ) ;
#238 = AXIS2_PLACEMENT_3D ( 'NONE', #394, #39, #610 ) ;
#239 = CARTESIAN_POINT ( 'NONE',  ( 23.42989244754206268, 2.356896500825025331, 86.31653924938576949 ) ) ;
#240 = PLANE ( 'NONE',  #410 ) ;
#241 = EDGE_LOOP ( 'NONE', ( #305, #183, #2, #147 ) ) ;
#242 = CARTESIAN_POINT ( 'NONE',  ( 23.05553233304278749, 2.719651613862138273, 85.71833426558384872 ) ) ;
#243 = LINE ( 'NONE', #89, #429 ) ;
#244 = VERTEX_POINT ( 'NONE', #554 ) ;
#245 = CARTESIAN_POINT ( 'NONE',  ( 23.76695922734544908, -1.000002247580006776, 86.83230989418449042 ) ) ;
#246 = DIRECTION ( 'NONE',  ( 1.584870801573570066E-32, 7.308926516630639104E-17, 1.000000000000000000 ) ) ;
#247 = ORIENTED_EDGE ( 'NONE', *, *, #431, .T. ) ;
#248 = CIRCLE ( 'NONE', #290, 3.000005999999999506 ) ;
#249 = CARTESIAN_POINT ( 'NONE',  ( 24.93017699136400012, -9.000018247579996356, 76.27634810375421637 ) ) ;
#250 = VERTEX_POINT ( 'NONE', #252 ) ;
#251 = ADVANCED_FACE ( 'NONE', ( #136 ), #397, .T. ) ;
#252 = CARTESIAN_POINT ( 'NONE',  ( 23.76695922734544908, 1.820659917795099059, 86.83230989418449042 ) ) ;
#253 = VERTEX_POINT ( 'NONE', #299 ) ;
#254 = EDGE_CURVE ( 'NONE', #365, #641, #287, .T. ) ;
#255 = CARTESIAN_POINT ( 'NONE',  ( 22.40033921572710796, -1.000002247580006776, 84.49887509508350547 ) ) ;
#256 = B_SPLINE_CURVE_WITH_KNOTS ( 'NONE', 3,
 ( #62, #528, #470, #320, #571, #105, #13, #108, #263, #418, #15, #54, #255, #212 ),
 .UNSPECIFIED., .F., .F.,
 ( 4, 1, 1, 1, 1, 1, 1, 1, 1, 1, 1, 4 ),
 ( 0.000000000000000000, 0.05416097960392660116, 0.1253836639953896104, 0.2497964173435699986, 0.3745756927470720310, 0.4999675944255070337, 0.6227399468854810660, 0.7493506730562040641, 0.8130979733425000022, 0.8760272141741610730, 0.9382794283787059264, 1.000000000000000000 ),
 .UNSPECIFIED. ) ;
#257 = VECTOR ( 'NONE', #417, 1000.000000000000000 ) ;
#258 = AXIS2_PLACEMENT_3D ( 'NONE', #489, #326, #231 ) ;
#259 = LINE ( 'NONE', #372, #594 ) ;
#260 = CARTESIAN_POINT ( 'NONE',  ( 22.40033921572710796, -1.000002247580006776, 84.49887509508350547 ) ) ;
#261 = DIRECTION ( 'NONE',  ( 1.000000000000000000, 0.000000000000000000, -2.484124017598790126E-15 ) ) ;
#262 = ADVANCED_FACE ( 'NONE', ( #607 ), #453, .F. ) ;
#263 = CARTESIAN_POINT ( 'NONE',  ( 22.70341422462081837, -1.000002247580006776, 85.10578954794461026 ) ) ;
#264 = ORIENTED_EDGE ( 'NONE', *, *, #133, .F. ) ;
#265 = CARTESIAN_POINT ( 'NONE',  ( 23.16322743655758742, 3.024005800419995893, 85.89526910295285234 ) ) ;
#266 = VECTOR ( 'NONE', #117, 999.9999999999998863 ) ;
#267 = AXIS2_PLACEMENT_3D ( 'NONE', #185, #660, #43 ) ;
#268 = CARTESIAN_POINT ( 'NONE',  ( 24.18084815153072853, 0.9980995857297422225, 87.46040084262776304 ) ) ;
#269 = EDGE_LOOP ( 'NONE', ( #52, #137, #439, #40, #617, #322, #119, #306, #496, #628, #360, #395, #451, #419, #161, #210 ) ) ;
#270 = CARTESIAN_POINT ( 'NONE',  ( 22.35446726299588249, -1.000002247580006776, 84.39538174976146934 ) ) ;
#271 = DIRECTION ( 'NONE',  ( -2.312960008715725786E-15, 0.000000000000000000, -1.000000000000000000 ) ) ;
#272 = DIRECTION ( 'NONE',  ( 0.05592277612797188352, 9.686198329887495026E-17, 0.9984350970945184978 ) ) ;
#273 = DIRECTION ( 'NONE',  ( 0.000000000000000000, 1.084202172485501722E-16, 1.000000000000000000 ) ) ;
#274 = CARTESIAN_POINT ( 'NONE',  ( 22.35464908468895118, 2.998641397713432521, 84.39580255027287592 ) ) ;
#275 = SURFACE_STYLE_USAGE ( .BOTH. , #434 ) ;
#276 = ADVANCED_BREP_SHAPE_REPRESENTATION ( 'Wrist Hinge 1 RH60', ( #194, #130 ), #333 ) ;
#277 = AXIS2_PLACEMENT_3D ( 'NONE', #145, #192, #403 ) ;
#278 = FACE_OUTER_BOUND ( 'NONE', #202, .T. ) ;
#279 =( LENGTH_UNIT ( ) NAMED_UNIT ( * ) SI_UNIT ( .MILLI., .METRE. ) );
#280 = ORIENTED_EDGE ( 'NONE', *, *, #404, .F. ) ;
#281 = ADVANCED_FACE ( 'NONE', ( #37 ), #1, .T. ) ;
#282 = DIRECTION ( 'NONE',  ( 1.000000000000000000, 0.000000000000000000, -2.484124017598790126E-15 ) ) ;
#283 = CARTESIAN_POINT ( 'NONE',  ( 21.42210598768351204, 9.000017752419999795, 68.44790532215380097 ) ) ;
#284 = ORIENTED_EDGE ( 'NONE', *, *, #84, .T. ) ;
#285 = EDGE_CURVE ( 'NONE', #86, #90, #551, .T. ) ;
#286 = PRODUCT_CONTEXT ( 'NONE', #413, 'mechanical' ) ;
#287 = LINE ( 'NONE', #458, #180 ) ;
#288 = VECTOR ( 'NONE', #273, 1000.000000000000000 ) ;
#289 = ORIENTED_EDGE ( 'NONE', *, *, #254, .T. ) ;
#290 = AXIS2_PLACEMENT_3D ( 'NONE', #486, #633, #125 ) ;
#291 = VECTOR ( 'NONE', #563, 1000.000000000000000 ) ;
#292 = CARTESIAN_POINT ( 'NONE',  ( 27.93018299136399918, -1.000002247580006776, 81.61950454055332216 ) ) ;
#293 = DIRECTION ( 'NONE',  ( 1.000000000000000000, -2.220446049250315053E-16, -2.484124017598785393E-15 ) ) ;
#294 = ORIENTED_EDGE ( 'NONE', *, *, #118, .F. ) ;
#295 = DIRECTION ( 'NONE',  ( -2.478305068352325193E-16, -1.000000000000000000, 1.140052912139723896E-16 ) ) ;
#296 = DIRECTION ( 'NONE',  ( -2.484124017598785393E-15, 0.000000000000000000, -1.000000000000000000 ) ) ;
#297 = ORIENTED_EDGE ( 'NONE', *, *, #583, .T. ) ;
#298 = CARTESIAN_POINT ( 'NONE',  ( 22.37717575049257235, 3.000005752419996341, 84.44793732215518389 ) ) ;
#299 = CARTESIAN_POINT ( 'NONE',  ( 23.62245578371875965, 2.077482288253722054, 86.61221602725214552 ) ) ;
#300 = VERTEX_POINT ( 'NONE', #389 ) ;
#301 = EDGE_CURVE ( 'NONE', #341, #468, #513, .T. ) ;
#302 = CARTESIAN_POINT ( 'NONE',  ( 23.62245578371875965, 2.095947195468723212, 86.61221602725214552 ) ) ;
#303 = PRODUCT_DEFINITION_FORMATION_WITH_SPECIFIED_SOURCE ( 'ANY', '', #55, .NOT_KNOWN. ) ;
#304 = DIRECTION ( 'NONE',  ( 0.000000000000000000, 1.084202172485501722E-16, 1.000000000000000000 ) ) ;
#305 = ORIENTED_EDGE ( 'NONE', *, *, #154, .T. ) ;
#306 = ORIENTED_EDGE ( 'NONE', *, *, #371, .F. ) ;
#307 = B_SPLINE_SURFACE_WITH_KNOTS ( 'NONE', 3, 1, ( 
 ( #589, #432 ),
 ( #323, #228 ),
 ( #165, #374 ),
 ( #541, #28 ) ),
 .UNSPECIFIED., .F., .F., .F.,
 ( 4, 4 ),
 ( 2, 2 ),
 ( 0.000000000000000000, 0.06276866411193719741 ),
 ( 0.000000000000000000, 1.000000000000000000 ),
 .UNSPECIFIED. ) ;
#308 = DIRECTION ( 'NONE',  ( -1.584870801573559939E-32, -7.308926516630639104E-17, -1.000000000000000000 ) ) ;
#309 = CARTESIAN_POINT ( 'NONE',  ( 23.62245578371882360, 3.024005800419995893, 86.61221602725214552 ) ) ;
#310 = DIRECTION ( 'NONE',  ( 8.032061487971200750E-15, 7.308926516630439423E-17, 1.000000000000000000 ) ) ;
#311 = CARTESIAN_POINT ( 'NONE',  ( 21.31969479885164276, 4.656863315620856092, 66.61947454055344053 ) ) ;
#312 = CARTESIAN_POINT ( 'NONE',  ( 23.76695922734544908, 1.820659917795099059, 86.83230989418449042 ) ) ;
#313 = ADVANCED_FACE ( 'NONE', ( #198 ), #401, .F. ) ;
#314 = LINE ( 'NONE', #634, #225 ) ;
#315 = ORIENTED_EDGE ( 'NONE', *, *, #36, .T. ) ;
#316 = CARTESIAN_POINT ( 'NONE',  ( 23.16322743655758742, -1.000002247580006776, 85.89526910295285234 ) ) ;
#317 = DIRECTION ( 'NONE',  ( 0.000000000000000000, -1.000000000000000000, 0.000000000000000000 ) ) ;
#318 = ORIENTED_EDGE ( 'NONE', *, *, #201, .F. ) ;
#319 = CARTESIAN_POINT ( 'NONE',  ( 22.37717575049257235, -1.000002247580006776, 84.44793732215518389 ) ) ;
#320 = CARTESIAN_POINT ( 'NONE',  ( 23.45595629290198048, -1.000002247580006776, 86.35620529454398309 ) ) ;
#321 = ADVANCED_FACE ( 'NONE', ( #340 ), #240, .F. ) ;
#322 = ORIENTED_EDGE ( 'NONE', *, *, #234, .F. ) ;
#323 = CARTESIAN_POINT ( 'NONE',  ( 22.35446726298448539, -1.000002247580006776, 84.39538174973505136 ) ) ;
#324 = MECHANICAL_DESIGN_GEOMETRIC_PRESENTATION_REPRESENTATION (  '', ( #67 ), #478 ) ;
#325 = DIRECTION ( 'NONE',  ( -1.000000000000000000, 2.498001805406600244E-16, 2.796167398073205202E-34 ) ) ;
#326 = DIRECTION ( 'NONE',  ( 1.000000000000000000, 0.000000000000000000, -2.484124017598790126E-15 ) ) ;
#327 = DIRECTION ( 'NONE',  ( 1.000000000000000000, -2.220446049250315053E-16, -2.081664007844154824E-15 ) ) ;
#328 = CARTESIAN_POINT ( 'NONE',  ( 22.33175877549918908, -1.000002247580006776, 84.34282617736755583 ) ) ;
#329 = DIRECTION ( 'NONE',  ( -1.000000000000000000, 2.498001805406600244E-16, 2.484124017598790126E-15 ) ) ;
#330 = CARTESIAN_POINT ( 'NONE',  ( 21.42210598768351204, -1.000002247580006776, 68.44790532215380097 ) ) ;
#331 = EDGE_CURVE ( 'NONE', #603, #545, #505, .T. ) ;
#332 = CARTESIAN_POINT ( 'NONE',  ( 22.17276126956776139, 1.528124478204816672, 81.84996850903000620 ) ) ;
#333 =( GEOMETRIC_REPRESENTATION_CONTEXT ( 3 ) GLOBAL_UNCERTAINTY_ASSIGNED_CONTEXT ( ( #406 ) ) GLOBAL_UNIT_ASSIGNED_CONTEXT ( ( #233, #457, #560 ) ) REPRESENTATION_CONTEXT ( 'NONE', 'WORKASPACE' ) );
#334 = ORIENTED_EDGE ( 'NONE', *, *, #84, .F. ) ;
#335 = LINE ( 'NONE', #590, #606 ) ;
#336 = CARTESIAN_POINT ( 'NONE',  ( 22.27571395523436237, 2.903870829030024581, 83.68806707685597246 ) ) ;
#337 = ORIENTED_EDGE ( 'NONE', *, *, #3, .T. ) ;
#338 = CARTESIAN_POINT ( 'NONE',  ( 31.18018949136402895, 13.42819723252978292, 81.61950454055332216 ) ) ;
#339 = DIRECTION ( 'NONE',  ( 1.000000000000000000, 0.000000000000000000, 0.000000000000000000 ) ) ;
#340 = FACE_OUTER_BOUND ( 'NONE', #414, .T. ) ;
#341 = VERTEX_POINT ( 'NONE', #405 ) ;
#342 = EDGE_CURVE ( 'NONE', #300, #545, #4, .T. ) ;
#343 = CARTESIAN_POINT ( 'NONE',  ( 23.27226583333297683, 2.527451480032768760, 86.06861132216836552 ) ) ;
#344 = CARTESIAN_POINT ( 'NONE',  ( 27.93018299136399918, 1.000001752419993561, 79.61950054055324699 ) ) ;
#345 = ORIENTED_EDGE ( 'NONE', *, *, #201, .T. ) ;
#346 = CARTESIAN_POINT ( 'NONE',  ( 64.49649628825488890, 1.000001752419978018, 74.27634410375409857 ) ) ;
#347 = AXIS2_PLACEMENT_3D ( 'NONE', #83, #295, #385 ) ;
#348 = SHAPE_DEFINITION_REPRESENTATION ( #208, #276 ) ;
#349 = DIRECTION ( 'NONE',  ( -1.000000000000000000, 2.478305068352325193E-16, -2.265041614644699929E-33 ) ) ;
#350 = VERTEX_POINT ( 'NONE', #46 ) ;
#351 = CARTESIAN_POINT ( 'NONE',  ( 22.88779592444774380, 2.839803387529789447, 85.43654924295104536 ) ) ;
#352 = LINE ( 'NONE', #355, #291 ) ;
#353 = PRODUCT_DEFINITION_CONTEXT ( 'detailed design', #520, 'design' ) ;
#354 = ORIENTED_EDGE ( 'NONE', *, *, #61, .F. ) ;
#355 = CARTESIAN_POINT ( 'NONE',  ( 64.49649628825488890, -1.000002247580018766, 87.27637010375408977 ) ) ;
#356 = ADVANCED_FACE ( 'NONE', ( #613 ), #149, .T. ) ;
#357 = ORIENTED_EDGE ( 'NONE', *, *, #138, .F. ) ;
#358 = AXIS2_PLACEMENT_3D ( 'NONE', #249, #246, #446 ) ;
#359 = VERTEX_POINT ( 'NONE', #599 ) ;
#360 = ORIENTED_EDGE ( 'NONE', *, *, #3, .F. ) ;
#361 = EDGE_LOOP ( 'NONE', ( #315, #552, #65, #334 ) ) ;
#362 = CARTESIAN_POINT ( 'NONE',  ( 22.52075638152015813, 3.024005800419995893, 84.75329346454847723 ) ) ;
#363 = CARTESIAN_POINT ( 'NONE',  ( 27.93018299136399918, -9.000018247579996356, 76.27634810375421637 ) ) ;
#364 = EDGE_CURVE ( 'NONE', #465, #603, #95, .T. ) ;
#365 = VERTEX_POINT ( 'NONE', #146 ) ;
#366 = CARTESIAN_POINT ( 'NONE',  ( 23.55464692765210444, 3.024005800419995893, 86.50845235112846865 ) ) ;
#367 = LINE ( 'NONE', #525, #584 ) ;
#368 = DIRECTION ( 'NONE',  ( -1.000000000000000000, 0.000000000000000000, 2.484124017598790126E-15 ) ) ;
#369 = EDGE_LOOP ( 'NONE', ( #284, #518, #632, #232 ) ) ;
#370 = CARTESIAN_POINT ( 'NONE',  ( 21.43171587690921953, -1.000002247580006776, 68.61947854055331675 ) ) ;
#371 = EDGE_CURVE ( 'NONE', #649, #409, #352, .T. ) ;
#372 = CARTESIAN_POINT ( 'NONE',  ( 31.18018949136402895, 1.000001752419984014, 81.61950454055332216 ) ) ;
#373 = VERTEX_POINT ( 'NONE', #101 ) ;
#374 = CARTESIAN_POINT ( 'NONE',  ( 22.33175877547645172, 3.024005800419995893, 84.34282617731500409 ) ) ;
#375 = FACE_OUTER_BOUND ( 'NONE', #207, .T. ) ;
#376 = PRODUCT_RELATED_PRODUCT_CATEGORY ( 'part', '', ( #55 ) ) ;
#377 = CARTESIAN_POINT ( 'NONE',  ( 23.72136014233177193, -1.000002247580006776, 86.76311168451800881 ) ) ;
#378 = VECTOR ( 'NONE', #8, 1000.000000000000000 ) ;
#379 = PRESENTATION_LAYER_ASSIGNMENT (  '', '', ( #67 ) ) ;
#380 = LINE ( 'NONE', #330, #193 ) ;
#381 =( NAMED_UNIT ( * ) PLANE_ANGLE_UNIT ( ) SI_UNIT ( $, .RADIAN. ) );
#382 = CYLINDRICAL_SURFACE ( 'NONE', #258, 3.000005999999999950 ) ;
#383 = CARTESIAN_POINT ( 'NONE',  ( 22.18483793396109505, 1.823701623173350272, 82.06558308364539300 ) ) ;
#384 = ORIENTED_EDGE ( 'NONE', *, *, #154, .F. ) ;
#385 = DIRECTION ( 'NONE',  ( -1.000000000000000000, 2.478305068352325193E-16, 0.000000000000000000 ) ) ;
#386 = CARTESIAN_POINT ( 'NONE',  ( 24.93017699136400012, -1.000002247580006776, 76.27634810375421637 ) ) ;
#387 = LINE ( 'NONE', #540, #169 ) ;
#388 = VERTEX_POINT ( 'NONE', #49 ) ;
#389 = CARTESIAN_POINT ( 'NONE',  ( 24.93017699136400012, 1.000001752419993561, 74.27634410375422647 ) ) ;
#390 = ADVANCED_FACE ( 'NONE', ( #200 ), #51, .F. ) ;
#391 = ORIENTED_EDGE ( 'NONE', *, *, #162, .F. ) ;
#392 = CARTESIAN_POINT ( 'NONE',  ( 31.18018949136402895, -1.000002247580006776, 81.61950454055332216 ) ) ;
#393 = CARTESIAN_POINT ( 'NONE',  ( 23.72136014233177193, -1.000002247580006776, 86.76311168451800881 ) ) ;
#394 = CARTESIAN_POINT ( 'NONE',  ( 24.93017699136400012, -2.475800129362118462E-07, 71.44791132215380003 ) ) ;
#395 = ORIENTED_EDGE ( 'NONE', *, *, #537, .F. ) ;
#396 = CARTESIAN_POINT ( 'NONE',  ( 27.93018299136403471, -1.000002247580006776, 87.27637010375408977 ) ) ;
#397 = PLANE ( 'NONE',  #267 ) ;
#398 = EDGE_LOOP ( 'NONE', ( #481, #150, #264, #92, #68 ) ) ;
#399 = VECTOR ( 'NONE', #325, 1000.000000000000000 ) ;
#400 = CARTESIAN_POINT ( 'NONE',  ( 23.62245578371875965, -1.000002247580006776, 86.61221602725214552 ) ) ;
#401 = PLANE ( 'NONE',  #566 ) ;
#402 = ORIENTED_EDGE ( 'NONE', *, *, #529, .F. ) ;
#403 = DIRECTION ( 'NONE',  ( -2.312960008715725786E-15, 0.000000000000000000, -1.000000000000000000 ) ) ;
#404 = EDGE_CURVE ( 'NONE', #407, #423, #524, .T. ) ;
#405 = CARTESIAN_POINT ( 'NONE',  ( 27.93018299136399918, 1.000001752419993561, 79.61950054055324699 ) ) ;
#406 = UNCERTAINTY_MEASURE_WITH_UNIT (LENGTH_MEASURE( 1.000000000000000082E-05 ), #233, 'distance_accuracy_value', 'NONE');
#407 = VERTEX_POINT ( 'NONE', #623 ) ;
#408 = CARTESIAN_POINT ( 'NONE',  ( 22.70341422462081837, 3.024005800419995893, 85.10578954794461026 ) ) ;
#409 = VERTEX_POINT ( 'NONE', #469 ) ;
#410 = AXIS2_PLACEMENT_3D ( 'NONE', #561, #293, #651 ) ;
#411 = CARTESIAN_POINT ( 'NONE',  ( 22.83760210049407036, -1.000002247580006776, 85.34833765804521022 ) ) ;
#412 = DIRECTION ( 'NONE',  ( 2.498001805406600244E-16, 1.000000000000000000, -7.308926516630639104E-17 ) ) ;
#413 = APPLICATION_CONTEXT ( 'automotive_design' ) ;
#414 = EDGE_LOOP ( 'NONE', ( #32, #214, #164, #107 ) ) ;
#415 = DIRECTION ( 'NONE',  ( 0.000000000000000000, -1.000000000000000000, 7.308926516630639104E-17 ) ) ;
#416 = CARTESIAN_POINT ( 'NONE',  ( 22.44686566937248529, -1.000002247580006776, 84.60118940371360452 ) ) ;
#417 = DIRECTION ( 'NONE',  ( -2.498001805406600244E-16, -1.000000000000000000, 7.308926516630639104E-17 ) ) ;
#418 = CARTESIAN_POINT ( 'NONE',  ( 22.59764076196524840, -1.000002247580006776, 84.90516386221031553 ) ) ;
#419 = ORIENTED_EDGE ( 'NONE', *, *, #485, .T. ) ;
#420 = AXIS2_PLACEMENT_3D ( 'NONE', #638, #327, #271 ) ;
#421 = CARTESIAN_POINT ( 'NONE',  ( 22.59764076196524840, 3.024005800419995893, 84.90516386221031553 ) ) ;
#422 = LINE ( 'NONE', #521, #378 ) ;
#423 = VERTEX_POINT ( 'NONE', #531 ) ;
#424 = DIRECTION ( 'NONE',  ( 0.000000000000000000, 0.000000000000000000, -1.000000000000000000 ) ) ;
#425 = LINE ( 'NONE', #64, #266 ) ;
#426 = FACE_OUTER_BOUND ( 'NONE', #369, .T. ) ;
#427 = CARTESIAN_POINT ( 'NONE',  ( 24.93017699136400012, -1.000002247580006776, 79.61950054055324699 ) ) ;
#428 = LINE ( 'NONE', #494, #57 ) ;
#429 = VECTOR ( 'NONE', #189, 1000.000000000000000 ) ;
#430 = DIRECTION ( 'NONE',  ( -2.312960008715725786E-15, 0.000000000000000000, -1.000000000000000000 ) ) ;
#431 = EDGE_CURVE ( 'NONE', #230, #468, #519, .T. ) ;
#432 = CARTESIAN_POINT ( 'NONE',  ( 22.37717575049257235, 3.024005800419995893, 84.44793732215518389 ) ) ;
#433 = B_SPLINE_CURVE_WITH_KNOTS ( 'NONE', 3,
 ( #483, #229, #121, #336, #588, #75, #591, #640, #438, #488, #182, #26, #174, #383, #127, #332, #223, #495 ),
 .UNSPECIFIED., .F., .F.,
 ( 4, 1, 1, 2, 2, 2, 1, 1, 2, 2, 4 ),
 ( 0.000000000000000000, 0.1250000000000497380, 0.1875000000000686950, 0.2187500000000723865, 0.2500000000000760503, 0.5000000000000728306, 0.6250000000000712763, 0.6875000000000704992, 0.7187500000000662803, 0.7500000000000620615, 1.000000000000000000 ),
 .UNSPECIFIED. ) ;
#434 = SURFACE_SIDE_STYLE ('',( #235 ) ) ;
#435 = ORIENTED_EDGE ( 'NONE', *, *, #118, .T. ) ;
#436 = ADVANCED_FACE ( 'NONE', ( #56 ), #220, .T. ) ;
#437 = DIRECTION ( 'NONE',  ( 1.000000000000000000, -2.168404344971010101E-16, 0.000000000000000000 ) ) ;
#438 = CARTESIAN_POINT ( 'NONE',  ( 22.23132682192126452, 2.584923610323607512, 82.89558725328993205 ) ) ;
#439 = ORIENTED_EDGE ( 'NONE', *, *, #614, .F. ) ;
#440 = ADVANCED_FACE ( 'NONE', ( #93 ), #549, .T. ) ;
#441 = PRESENTATION_STYLE_ASSIGNMENT (( #275 ) ) ;
#442 = CIRCLE ( 'NONE', #420, 3.000005999999999506 ) ;
#443 = ORIENTED_EDGE ( 'NONE', *, *, #21, .F. ) ;
#444 = DIRECTION ( 'NONE',  ( -1.000000000000000000, 2.498001805406600244E-16, 2.484124017598790126E-15 ) ) ;
#445 = CARTESIAN_POINT ( 'NONE',  ( 22.37717575049257235, 3.000005752419996341, 84.44793732215518389 ) ) ;
#446 = DIRECTION ( 'NONE',  ( 0.000000000000000000, -1.000000000000000000, 7.308926516630639104E-17 ) ) ;
#447 = EDGE_LOOP ( 'NONE', ( #384, #645, #111, #598 ) ) ;
#448 = DIRECTION ( 'NONE',  ( -8.032061487971200750E-15, 0.000000000000000000, -1.000000000000000000 ) ) ;
#449 = CARTESIAN_POINT ( 'NONE',  ( 23.21853421104330550, 2.579969175299710038, 85.98321892899194552 ) ) ;
#450 = CARTESIAN_POINT ( 'NONE',  ( -5.450614144822395912E-05, -1.000002247580006776, 76.27634810375421637 ) ) ;
#451 = ORIENTED_EDGE ( 'NONE', *, *, #61, .T. ) ;
#452 = CARTESIAN_POINT ( 'NONE',  ( 27.93018299136399918, 1.000001752419993561, 81.61950454055326531 ) ) ;
#453 = PLANE ( 'NONE',  #358 ) ;
#454 = ORIENTED_EDGE ( 'NONE', *, *, #331, .F. ) ;
#455 = VECTOR ( 'NONE', #597, 1000.000000000000000 ) ;
#456 = EDGE_CURVE ( 'NONE', #300, #407, #654, .T. ) ;
#457 =( NAMED_UNIT ( * ) PLANE_ANGLE_UNIT ( ) SI_UNIT ( $, .RADIAN. ) );
#458 = CARTESIAN_POINT ( 'NONE',  ( 22.37717575049257235, -5.087461584443249585, 84.44793732215518389 ) ) ;
#459 = ORIENTED_EDGE ( 'NONE', *, *, #342, .F. ) ;
#460 = CARTESIAN_POINT ( 'NONE',  ( 24.93017699136400012, -9.000018247579996356, 76.27634810375421637 ) ) ;
#461 = ORIENTED_EDGE ( 'NONE', *, *, #213, .F. ) ;
#462 = EDGE_CURVE ( 'NONE', #59, #409, #604, .T. ) ;
#463 = CARTESIAN_POINT ( 'NONE',  ( 27.93018299136399918, -1.000002247580006776, 68.61947854055325990 ) ) ;
#464 = VECTOR ( 'NONE', #502, 1000.000000000000000 ) ;
#465 = VERTEX_POINT ( 'NONE', #187 ) ;
#466 = CARTESIAN_POINT ( 'NONE',  ( 23.60200073701413714, -1.000002247580006776, 86.58091494116294484 ) ) ;
#467 = PLANE ( 'NONE',  #16 ) ;
#468 = VERTEX_POINT ( 'NONE', #41 ) ;
#469 = CARTESIAN_POINT ( 'NONE',  ( 31.18018949136402895, -1.000002247580006776, 87.27637010375423188 ) ) ;
#470 = CARTESIAN_POINT ( 'NONE',  ( 23.55464692765210444, -1.000002247580006776, 86.50845235112846865 ) ) ;
#471 = ORIENTED_EDGE ( 'NONE', *, *, #364, .T. ) ;
#472 = CARTESIAN_POINT ( 'NONE',  ( 23.32376538824467360, -1.000002247580006776, 86.15049573296836627 ) ) ;
#473 = UNCERTAINTY_MEASURE_WITH_UNIT (LENGTH_MEASURE( 1.000000000000000082E-05 ), #279, 'distance_accuracy_value', 'NONE');
#474 = DIRECTION ( 'NONE',  ( 0.000000000000000000, 1.000000000000000000, 0.000000000000000000 ) ) ;
#475 = ADVANCED_FACE ( 'NONE', ( #151 ), #567, .F. ) ;
#476 = AXIS2_PLACEMENT_3D ( 'NONE', #480, #261, #317 ) ;
#477 = EDGE_LOOP ( 'NONE', ( #29, #514, #454, #115 ) ) ;
#478 =( GEOMETRIC_REPRESENTATION_CONTEXT ( 3 ) GLOBAL_UNCERTAINTY_ASSIGNED_CONTEXT ( ( #473 ) ) GLOBAL_UNIT_ASSIGNED_CONTEXT ( ( #279, #381, #24 ) ) REPRESENTATION_CONTEXT ( 'NONE', 'WORKASPACE' ) );
#479 = CARTESIAN_POINT ( 'NONE',  ( 22.83760210049407036, 3.024005800419995893, 85.34833765804521022 ) ) ;
#480 = CARTESIAN_POINT ( 'NONE',  ( 64.49649628825488890, -2.475800234421308976E-07, 84.44793732215367754 ) ) ;
#481 = ORIENTED_EDGE ( 'NONE', *, *, #404, .T. ) ;
#482 = CARTESIAN_POINT ( 'NONE',  ( 22.30943901472956981, -1.000002247580006776, 84.29018816924457269 ) ) ;
#483 = CARTESIAN_POINT ( 'NONE',  ( 22.30952116238722027, 2.995912688300309767, 84.29164512333328219 ) ) ;
#484 = CARTESIAN_POINT ( 'NONE',  ( 24.93017699136400012, -1.000002247580006776, 71.44791132215380003 ) ) ;
#485 = EDGE_CURVE ( 'NONE', #19, #218, #50, .T. ) ;
#486 = CARTESIAN_POINT ( 'NONE',  ( 27.93018299136399918, -2.475800135216810194E-07, 71.44791132215380003 ) ) ;
#487 = VECTOR ( 'NONE', #135, 1000.000000000000000 ) ;
#488 = CARTESIAN_POINT ( 'NONE',  ( 22.21092655193890053, 2.313042031429263456, 82.53136453491173086 ) ) ;
#489 = CARTESIAN_POINT ( 'NONE',  ( 64.49649628825488890, -2.475800270199980668E-07, 71.44791132215368634 ) ) ;
#490 = CARTESIAN_POINT ( 'NONE',  ( 24.93017699136400012, 1.000001752419993561, 81.61950454055326531 ) ) ;
#491 = B_SPLINE_CURVE_WITH_KNOTS ( 'NONE', 3,
 ( #188, #33, #239, #343, #449, #42, #242, #351, #497, #99, #655, #445 ),
 .UNSPECIFIED., .F., .F.,
 ( 4, 2, 2, 2, 2, 4 ),
 ( 0.000000000000000000, 0.2500000000000083267, 0.3750000000000116018, 0.5000000000000148770, 0.7500000000000074385, 1.000000000000000000 ),
 .UNSPECIFIED. ) ;
#492 = VERTEX_POINT ( 'NONE', #622 ) ;
#493 = ADVANCED_FACE ( 'NONE', ( #278 ), #382, .T. ) ;
#494 = CARTESIAN_POINT ( 'NONE',  ( 64.49649628825488890, -1.000002247580018766, 87.27637010375408977 ) ) ;
#495 = CARTESIAN_POINT ( 'NONE',  ( 22.15985288428344901, 1.000001752419993561, 81.61950454055332216 ) ) ;
#496 = ORIENTED_EDGE ( 'NONE', *, *, #662, .T. ) ;
#497 = CARTESIAN_POINT ( 'NONE',  ( 22.77753158271741185, 2.899879274363616588, 85.24290489178832786 ) ) ;
#498 = DIRECTION ( 'NONE',  ( 2.498001805406600244E-16, 1.000000000000000000, -7.308926516630639104E-17 ) ) ;
#499 = AXIS2_PLACEMENT_3D ( 'NONE', #80, #282, #30 ) ;
#500 = VERTEX_POINT ( 'NONE', #482 ) ;
#501 = APPLICATION_PROTOCOL_DEFINITION ( 'draft international standard', 'automotive_design', 1998, #520 ) ;
#502 = DIRECTION ( 'NONE',  ( 2.498001805406600244E-16, 1.000000000000000000, -7.308926516630639104E-17 ) ) ;
#503 = ORIENTED_EDGE ( 'NONE', *, *, #138, .T. ) ;
#504 = APPLICATION_PROTOCOL_DEFINITION ( 'draft international standard', 'automotive_design', 1998, #413 ) ;
#505 = LINE ( 'NONE', #460, #464 ) ;
#506 = EDGE_CURVE ( 'NONE', #661, #341, #335, .T. ) ;
#507 = EDGE_LOOP ( 'NONE', ( #199, #435, #141, #611 ) ) ;
#508 = CARTESIAN_POINT ( 'NONE',  ( 23.67312419120191080, -1.000002247580006776, 86.68967315353384606 ) ) ;
#509 = DIRECTION ( 'NONE',  ( 0.000000000000000000, -1.084202172485501722E-16, -1.000000000000000000 ) ) ;
#510 = ORIENTED_EDGE ( 'NONE', *, *, #197, .T. ) ;
#511 = VECTOR ( 'NONE', #349, 1000.000000000000000 ) ;
#512 = CARTESIAN_POINT ( 'NONE',  ( 23.67312419120191080, 2.095947195468723212, 86.68967315353384606 ) ) ;
#513 = LINE ( 'NONE', #344, #522 ) ;
#514 = ORIENTED_EDGE ( 'NONE', *, *, #342, .T. ) ;
#515 = ORIENTED_EDGE ( 'NONE', *, *, #36, .F. ) ;
#516 = CARTESIAN_POINT ( 'NONE',  ( 23.60200073701413714, 3.024005800419995893, 86.58091494116294484 ) ) ;
#517 = DIRECTION ( 'NONE',  ( 0.8350071374056257101, -2.488015060456201860E-16, -0.5502391120973338934 ) ) ;
#518 = ORIENTED_EDGE ( 'NONE', *, *, #234, .T. ) ;
#519 = LINE ( 'NONE', #112, #553 ) ;
#520 = APPLICATION_CONTEXT ( 'automotive_design' ) ;
#521 = CARTESIAN_POINT ( 'NONE',  ( 27.93018299136399918, -9.000018247579996356, 79.61950054055324699 ) ) ;
#522 = VECTOR ( 'NONE', #91, 1000.000000000000000 ) ;
#523 = ORIENTED_EDGE ( 'NONE', *, *, #331, .T. ) ;
#524 =( BOUNDED_CURVE ( )  B_SPLINE_CURVE ( 3, ( #630, #572, #311, #370 ),
 .UNSPECIFIED., .F., .T. ) 
 B_SPLINE_CURVE_WITH_KNOTS ( ( 4, 4 ),
 ( 0.3398369094541240365, 3.481429563043910047 ),
 .UNSPECIFIED. ) 
 CURVE ( )  GEOMETRIC_REPRESENTATION_ITEM ( )  RATIONAL_B_SPLINE_CURVE ( ( 1.000000000000000000, 0.3333333333333350357, 0.3333333333333350357, 1.000000000000000000 ) ) 
 REPRESENTATION_ITEM ( '' )  );
#525 = CARTESIAN_POINT ( 'NONE',  ( 23.76695922734544908, -5.087461584443249585, 86.83230989418449042 ) ) ;
#526 = VERTEX_POINT ( 'NONE', #124 ) ;
#527 = DIRECTION ( 'NONE',  ( 2.498001805406600244E-16, 1.000000000000000000, -7.308926516630639104E-17 ) ) ;
#528 = CARTESIAN_POINT ( 'NONE',  ( 23.60200073701413714, -1.000002247580006776, 86.58091494116294484 ) ) ;
#529 = EDGE_CURVE ( 'NONE', #545, #86, #546, .T. ) ;
#530 = VERTEX_POINT ( 'NONE', #71 ) ;
#531 = CARTESIAN_POINT ( 'NONE',  ( 21.43171587690921953, -1.000002247580006776, 68.61947854055331675 ) ) ;
#532 = ORIENTED_EDGE ( 'NONE', *, *, #74, .T. ) ;
#533 = CARTESIAN_POINT ( 'NONE',  ( 23.62245578371882360, -1.000002247580006776, 86.61221602725214552 ) ) ;
#534 = AXIS2_PLACEMENT_3D ( 'NONE', #338, #237, #448 ) ;
#535 = LINE ( 'NONE', #490, #288 ) ;
#536 = CARTESIAN_POINT ( 'NONE',  ( 24.93017699136400012, 1.000001752419993561, 76.27634810375421637 ) ) ;
#537 = EDGE_CURVE ( 'NONE', #373, #350, #428, .T. ) ;
#538 = CARTESIAN_POINT ( 'NONE',  ( 23.72182704187513025, 1.910355348858876035, 86.76382022093902435 ) ) ;
#539 = DIRECTION ( 'NONE',  ( 0.000000000000000000, -1.000000000000000000, 0.000000000000000000 ) ) ;
#540 = CARTESIAN_POINT ( 'NONE',  ( 64.49649628825488890, 1.000001752419975354, 81.61950454055326531 ) ) ;
#541 = CARTESIAN_POINT ( 'NONE',  ( 22.30943901154296682, -1.000002247580006776, 84.29018817050241807 ) ) ;
#542 = VECTOR ( 'NONE', #601, 1000.000000000000000 ) ;
#543 = DIRECTION ( 'NONE',  ( 1.000000000000000000, -2.220446049250315053E-16, -2.081664007844154824E-15 ) ) ;
#544 = EDGE_CURVE ( 'NONE', #423, #500, #380, .T. ) ;
#545 = VERTEX_POINT ( 'NONE', #642 ) ;
#546 = LINE ( 'NONE', #536, #587 ) ;
#547 = FACE_OUTER_BOUND ( 'NONE', #398, .T. ) ;
#548 = ORIENTED_EDGE ( 'NONE', *, *, #537, .T. ) ;
#549 = PLANE ( 'NONE',  #347 ) ;
#550 = EDGE_CURVE ( 'NONE', #44, #90, #248, .T. ) ;
#551 = LINE ( 'NONE', #557, #595 ) ;
#552 = ORIENTED_EDGE ( 'NONE', *, *, #643, .F. ) ;
#553 = VECTOR ( 'NONE', #527, 1000.000000000000000 ) ;
#554 = CARTESIAN_POINT ( 'NONE',  ( 31.18018949136402895, 1.000001752419984014, 81.61950454055332216 ) ) ;
#555 = LINE ( 'NONE', #568, #203 ) ;
#556 = ADVANCED_FACE ( 'NONE', ( #176 ), #307, .F. ) ;
#557 = CARTESIAN_POINT ( 'NONE',  ( 27.93018299136399918, 1.000001752419993561, 74.27634410375422647 ) ) ;
#558 = B_SPLINE_CURVE_WITH_KNOTS ( 'NONE', 3,
 ( #73, #274, #131, #639 ),
 .UNSPECIFIED., .F., .F.,
 ( 4, 4 ),
 ( 0.000000000000000000, 1.000000000000000000 ),
 .UNSPECIFIED. ) ;
#559 = ORIENTED_EDGE ( 'NONE', *, *, #301, .T. ) ;
#560 =( NAMED_UNIT ( * ) SI_UNIT ( $, .STERADIAN. ) SOLID_ANGLE_UNIT ( ) );
#561 = CARTESIAN_POINT ( 'NONE',  ( 27.93018299136399918, -2.475800135216810194E-07, 71.44791132215380003 ) ) ;
#562 = ORIENTED_EDGE ( 'NONE', *, *, #177, .F. ) ;
#563 = DIRECTION ( 'NONE',  ( 1.000000000000000000, -2.498001805406600244E-16, -2.484124017598790126E-15 ) ) ;
#564 = CIRCLE ( 'NONE', #122, 3.000005999999999506 ) ;
#565 = ORIENTED_EDGE ( 'NONE', *, *, #431, .F. ) ;
#566 = AXIS2_PLACEMENT_3D ( 'NONE', #143, #656, #296 ) ;
#567 = PLANE ( 'NONE',  #35 ) ;
#568 = CARTESIAN_POINT ( 'NONE',  ( 24.93017699136402854, -1.000002247580006776, 84.44793732215379123 ) ) ;
#569 = ORIENTED_EDGE ( 'NONE', *, *, #162, .T. ) ;
#570 = CARTESIAN_POINT ( 'NONE',  ( 22.44686566937248529, 3.024005800419995893, 84.60118940371360452 ) ) ;
#571 = CARTESIAN_POINT ( 'NONE',  ( 23.32376538824467360, -1.000002247580006776, 86.15049573296836627 ) ) ;
#572 = CARTESIAN_POINT ( 'NONE',  ( 21.63653825457299718, 6.656867315620838887, 72.27634010375419393 ) ) ;
#573 = CARTESIAN_POINT ( 'NONE',  ( 27.93018299136403471, -2.475800135216810194E-07, 84.44793732215379123 ) ) ;
#574 = VECTOR ( 'NONE', #123, 1000.000000000000000 ) ;
#575 = ORIENTED_EDGE ( 'NONE', *, *, #133, .T. ) ;
#576 = CARTESIAN_POINT ( 'NONE',  ( 27.93018299136399918, -1.000002247580006776, 79.61950054055324699 ) ) ;
#577 = ORIENTED_EDGE ( 'NONE', *, *, #616, .F. ) ;
#578 = CARTESIAN_POINT ( 'NONE',  ( 23.55464692765210444, -1.000002247580006776, 86.50845235112846865 ) ) ;
#579 = DIRECTION ( 'NONE',  ( 2.498001805406600244E-16, 1.000000000000000000, -7.308926516630639104E-17 ) ) ;
#580 = EDGE_LOOP ( 'NONE', ( #461, #577, #12, #357, #653, #548, #9, #345 ) ) ;
#581 = LINE ( 'NONE', #76, #227 ) ;
#582 = DIRECTION ( 'NONE',  ( 0.000000000000000000, -1.000000000000000000, 4.538726188273500000E-15 ) ) ;
#583 = EDGE_CURVE ( 'NONE', #492, #90, #581, .T. ) ;
#584 = VECTOR ( 'NONE', #160, 1000.000000000000000 ) ;
#585 = AXIS2_PLACEMENT_3D ( 'NONE', #612, #650, #94 ) ;
#586 = DIRECTION ( 'NONE',  ( -1.000000000000000000, 2.498001805406600244E-16, 2.484124017598790126E-15 ) ) ;
#587 = VECTOR ( 'NONE', #437, 1000.000000000000000 ) ;
#588 = CARTESIAN_POINT ( 'NONE',  ( 22.26990158912539997, 2.873307489146438076, 83.58429414707380545 ) ) ;
#589 = CARTESIAN_POINT ( 'NONE',  ( 22.37717575049257235, -1.000002247580006776, 84.44793732215518389 ) ) ;
#590 = CARTESIAN_POINT ( 'NONE',  ( 27.93018299136399918, 1.000001752419993561, 81.61950454055326531 ) ) ;
#591 = CARTESIAN_POINT ( 'NONE',  ( 22.26419960674229159, 2.840712254952711291, 83.48249198830248474 ) ) ;
#592 = ORIENTED_EDGE ( 'NONE', *, *, #506, .F. ) ;
#593 = CYLINDRICAL_SURFACE ( 'NONE', #109, 3.000005999999999950 ) ;
#594 = VECTOR ( 'NONE', #310, 1000.000000000000000 ) ;
#595 = VECTOR ( 'NONE', #509, 1000.000000000000000 ) ;
#596 = ADVANCED_FACE ( 'NONE', ( #120 ), #637, .T. ) ;
#597 = DIRECTION ( 'NONE',  ( 1.000000000000000000, -2.478305068352325193E-16, 2.265041614644789905E-33 ) ) ;
#598 = ORIENTED_EDGE ( 'NONE', *, *, #662, .F. ) ;
#599 = CARTESIAN_POINT ( 'NONE',  ( 22.30952116238722027, 2.995912688300309767, 84.29164512333328219 ) ) ;
#600 = ORIENTED_EDGE ( 'NONE', *, *, #529, .T. ) ;
#601 = DIRECTION ( 'NONE',  ( 8.032061487971200750E-15, 8.858891347027058781E-17, 1.000000000000000000 ) ) ;
#602 = CARTESIAN_POINT ( 'NONE',  ( 24.93017699136402854, -2.475800129362118462E-07, 84.44793732215379123 ) ) ;
#603 = VERTEX_POINT ( 'NONE', #386 ) ;
#604 = LINE ( 'NONE', #392, #542 ) ;
#605 = EDGE_CURVE ( 'NONE', #365, #500, #97, .T. ) ;
#606 = VECTOR ( 'NONE', #424, 1000.000000000000000 ) ;
#607 = FACE_OUTER_BOUND ( 'NONE', #102, .T. ) ;
#608 = CARTESIAN_POINT ( 'NONE',  ( 21.89473509356763969, 1.000001752419993561, 76.88613961408569253 ) ) ;
#609 = ADVANCED_FACE ( 'NONE', ( #426 ), #593, .T. ) ;
#610 = DIRECTION ( 'NONE',  ( -2.484124017598785393E-15, 0.000000000000000000, -1.000000000000000000 ) ) ;
#611 = ORIENTED_EDGE ( 'NONE', *, *, #254, .F. ) ;
#612 = CARTESIAN_POINT ( 'NONE',  ( 31.18018949136402895, -2.475800126434772597E-07, 84.44793732215379123 ) ) ;
#613 = FACE_OUTER_BOUND ( 'NONE', #477, .T. ) ;
#614 = EDGE_CURVE ( 'NONE', #603, #530, #171, .T. ) ;
#615 = ORIENTED_EDGE ( 'NONE', *, *, #96, .T. ) ;
#616 = EDGE_CURVE ( 'NONE', #641, #359, #558, .T. ) ;
#617 = ORIENTED_EDGE ( 'NONE', *, *, #625, .T. ) ;
#618 = VECTOR ( 'NONE', #444, 1000.000000000000000 ) ;
#619 = ORIENTED_EDGE ( 'NONE', *, *, #285, .F. ) ;
#620 = CARTESIAN_POINT ( 'NONE',  ( 22.59764076196524840, -1.000002247580006776, 84.90516386221031553 ) ) ;
#621 = CARTESIAN_POINT ( 'NONE',  ( 24.05957863679217823, -1.000002247580006776, 87.27637010375423188 ) ) ;
#622 = CARTESIAN_POINT ( 'NONE',  ( 31.18018949136400053, 1.000001752419993561, 74.27634410375422647 ) ) ;
#623 = CARTESIAN_POINT ( 'NONE',  ( 21.74855933263054197, 1.000001752419993561, 74.27634410375422647 ) ) ;
#624 = CARTESIAN_POINT ( 'NONE',  ( 27.93018299136399918, 1.000001752419993561, 74.27634410375422647 ) ) ;
#625 = EDGE_CURVE ( 'NONE', #465, #44, #23, .T. ) ;
#626 = ORIENTED_EDGE ( 'NONE', *, *, #170, .F. ) ;
#627 = CARTESIAN_POINT ( 'NONE',  ( 23.62245578371875965, -5.087461584443249585, 86.61221602725214552 ) ) ;
#628 = ORIENTED_EDGE ( 'NONE', *, *, #197, .F. ) ;
#629 = EDGE_CURVE ( 'NONE', #253, #641, #491, .T. ) ;
#630 = CARTESIAN_POINT ( 'NONE',  ( 21.74855933263054197, 1.000001752419993561, 74.27634410375422647 ) ) ;
#631 = DIRECTION ( 'NONE',  ( 0.000000000000000000, -1.000000000000000000, 4.521697941414400258E-16 ) ) ;
#632 = ORIENTED_EDGE ( 'NONE', *, *, #550, .T. ) ;
#633 = DIRECTION ( 'NONE',  ( 1.000000000000000000, -2.220446049250315053E-16, -2.081664007844154824E-15 ) ) ;
#634 = CARTESIAN_POINT ( 'NONE',  ( 64.49649628825488890, -1.000002247580018766, 68.61947854055325990 ) ) ;
#635 = CARTESIAN_POINT ( 'NONE',  ( 64.49649628825488890, -2.475800270199980668E-07, 71.44791132215368634 ) ) ;
#636 = FILL_AREA_STYLE_COLOUR ( '', #648 ) ;
#637 = CYLINDRICAL_SURFACE ( 'NONE', #499, 3.000005999999999950 ) ;
#638 = CARTESIAN_POINT ( 'NONE',  ( 24.93017699136400012, -2.475800129362118462E-07, 71.44791132215380003 ) ) ;
#639 = CARTESIAN_POINT ( 'NONE',  ( 22.30952116238722027, 2.995912688300309767, 84.29164512333328219 ) ) ;
#640 = CARTESIAN_POINT ( 'NONE',  ( 22.24620059224802304, 2.727053573822276089, 83.16114084967045983 ) ) ;
#641 = VERTEX_POINT ( 'NONE', #298 ) ;
#642 = CARTESIAN_POINT ( 'NONE',  ( 24.93017699136400012, 1.000001752419993561, 76.27634810375421637 ) ) ;
#643 = EDGE_CURVE ( 'NONE', #409, #244, #204, .T. ) ;
#644 = CARTESIAN_POINT ( 'NONE',  ( 21.72806543039269300, 1.000001752419993561, 81.61950454055332216 ) ) ;
#645 = ORIENTED_EDGE ( 'NONE', *, *, #506, .T. ) ;
#646 = VECTOR ( 'NONE', #579, 1000.000000000000000 ) ;
#647 = EDGE_CURVE ( 'NONE', #388, #350, #7, .T. ) ;
#648 = COLOUR_RGB ( '',0.7921568627450980005, 0.8196078431372548767, 0.9333333333333333481 ) ;
#649 = VERTEX_POINT ( 'NONE', #396 ) ;
#650 = DIRECTION ( 'NONE',  ( -1.000000000000000000, 0.000000000000000000, 2.484124017598790126E-15 ) ) ;
#651 = DIRECTION ( 'NONE',  ( -2.484124017598785393E-15, 0.000000000000000000, -1.000000000000000000 ) ) ;
#652 = ADVANCED_FACE ( 'NONE', ( #184 ), #6, .F. ) ;
#653 = ORIENTED_EDGE ( 'NONE', *, *, #126, .F. ) ;
#654 = LINE ( 'NONE', #346, #618 ) ;
#655 = CARTESIAN_POINT ( 'NONE',  ( 22.46846810249373050, 3.000005752419994565, 84.64869437854737555 ) ) ;
#656 = DIRECTION ( 'NONE',  ( 1.000000000000000000, -2.220446049250315053E-16, -2.484124017598785393E-15 ) ) ;
#657 = DIRECTION ( 'NONE',  ( -2.484124017598785393E-15, -1.140052912139717980E-16, -1.000000000000000000 ) ) ;
#658 = CARTESIAN_POINT ( 'NONE',  ( 0.000000000000000000, 0.000000000000000000, 0.000000000000000000 ) ) ;
#659 = VECTOR ( 'NONE', #45, 1000.000000000000000 ) ;
#660 = DIRECTION ( 'NONE',  ( 2.498001805406600244E-16, 1.000000000000000000, -7.308926516630639104E-17 ) ) ;
#661 = VERTEX_POINT ( 'NONE', #452 ) ;
#662 = EDGE_CURVE ( 'NONE', #649, #98, #87, .T. ) ;
ENDSEC;
END-ISO-10303-21;
